<?xml version="1.0" encoding="UTF-8" standalone="no"?>
<svg xmlns="http://www.w3.org/2000/svg" xmlns:xlink="http://www.w3.org/1999/xlink" xmlns:serif="http://www.serif.com/" width="100%" height="100%" viewBox="0 0 1300 1300" version="1.1" xml:space="preserve" style="fill-rule:evenodd;clip-rule:evenodd;stroke-linecap:square;stroke-miterlimit:5;"> <g id="Ulkoreuna" transform="matrix(2.0181,0,0,2.0181,-416.96,-412.924)"> <circle cx="528.5" cy="526.5" r="294.5" style="fill:white;stroke:black;stroke-width:4.13px;"/> </g> <g id="Van-Der-Grinten" serif:id="Van Der Grinten" transform="matrix(0.442913,0,0,0.442913,295.276,295.276)"> <path d="M800,1600L766.498,1524.04L754.387,1494.13L745.702,1471.74L738.764,1453.22L732.929,1437.16L727.862,1422.84L723.373,1409.84L719.333,1397.86L715.658,1386.73L712.284,1376.3L709.16,1366.46L706.258,1357.13L703.542,1348.26L700.991,1339.78L698.587,1331.65L696.311,1323.84L694.16,1316.32L692.111,1309.05L690.16,1302.03L688.293,1295.22L686.511,1288.61L684.804,1282.19L683.169,1275.94L681.591,1269.86L680.08,1263.92L678.622,1258.12L677.213,1252.46L675.858,1246.92L674.547,1241.51L673.276,1236.2L672.049,1231L670.862,1225.89L669.711,1220.88L668.591,1215.96L667.507,1211.13L666.458,1206.38L665.431,1201.71L664.44,1197.12L663.471,1192.59L662.529,1188.13L661.613,1183.74L660.72,1179.41L659.849,1175.15L659.004,1170.94L658.173,1166.79L657.369,1162.68L656.582,1158.64L655.813,1154.64L655.062,1150.69L654.329,1146.8L653.613,1142.94L652.916,1139.12L652.231,1135.36L651.56,1131.63L650.907,1127.94L650.267,1124.29L649.64,1120.68L649.031,1117.1L648.431,1113.56L647.84,1110.05L647.267,1106.57L646.702,1103.13L646.151,1099.72L645.613,1096.34L645.084,1092.99L644.564,1089.66L644.058,1086.37L643.556,1083.1L643.071,1079.86L642.591,1076.64L642.12,1073.45L641.662,1070.28L641.209,1067.14L640.764,1064.02L640.329,1060.92L639.907,1057.85L639.484,1054.8L639.076,1051.77L638.676,1048.76L638.28,1045.76L637.893,1042.8L637.511,1039.84L637.138,1036.91L636.773,1033.99L636.413,1031.09L636.058,1028.21L635.711,1025.35L635.373,1022.51L635.04,1019.68L634.711,1016.86L634.391,1014.06L634.076,1011.28L633.764,1008.51L633.462,1005.76L633.164,1003.01L632.871,1000.29L632.582,997.578L632.302,994.88L632.027,992.191L631.756,989.52L631.489,986.858L631.227,984.209L630.969,981.573L630.72,978.947L630.471,976.338L630.231,973.733L629.991,971.142L629.76,968.564L629.529,965.991L629.307,963.436L629.084,960.884L628.871,958.347L628.658,955.813L628.453,953.293L628.249,950.782L628.053,948.28L627.858,945.791L627.667,943.307L627.48,940.831L627.298,938.36L627.116,935.902L626.942,933.449L626.769,931.009L626.604,928.569L626.44,926.142L626.28,923.72L626.12,921.307L625.969,918.902L625.818,916.498L625.671,914.107L625.529,911.72L625.391,909.338L625.253,906.964L625.12,904.596L624.991,902.231L624.867,899.876L624.742,897.524L624.622,895.178L624.507,892.84L624.391,890.502L624.28,888.173L624.173,885.849L624.071,883.529L623.969,881.213L623.871,878.902L623.778,876.596L623.684,874.293L623.596,871.996L623.507,869.702L623.427,867.409L623.347,865.124L623.267,862.844L623.196,860.564L623.12,858.289L623.053,856.018L622.987,853.747L622.924,851.484L622.862,849.222L622.804,846.96L622.751,844.707L622.698,842.449L622.649,840.2L622.604,837.951L622.56,835.702L622.52,833.462L622.48,831.218L622.444,828.978L622.413,826.742L622.382,824.502L622.356,822.271L622.329,820.036L622.307,817.804L622.284,815.578L622.271,813.347L622.253,811.12L622.244,808.893L622.236,806.671L622.227,804.444L622.222,802.222L622.222,800L622.222,797.778L622.227,795.556L622.236,793.329L622.244,791.107L622.253,788.88L622.271,786.653L622.284,784.422L622.307,782.196L622.329,779.964L622.356,777.729L622.382,775.498L622.413,773.258L622.444,771.022L622.48,768.782L622.52,766.538L622.56,764.298L622.604,762.049L622.649,759.8L622.698,757.551L622.751,755.293L622.804,753.04L622.862,750.778L622.924,748.516L622.987,746.253L623.053,743.982L623.12,741.711L623.196,739.436L623.267,737.156L623.347,734.876L623.427,732.591L623.507,730.298L623.596,728.004L623.684,725.707L623.778,723.404L623.871,721.098L623.969,718.787L624.071,716.471L624.173,714.151L624.28,711.827L624.391,709.498L624.507,707.16L624.622,704.822L624.742,702.476L624.867,700.124L624.991,697.769L625.12,695.404L625.253,693.036L625.391,690.662L625.529,688.28L625.671,685.893L625.818,683.502L625.969,681.098L626.12,678.693L626.28,676.28L626.44,673.858L626.604,671.431L626.769,668.991L626.942,666.551L627.116,664.098L627.298,661.64L627.48,659.169L627.667,656.693L627.858,654.209L628.053,651.72L628.249,649.218L628.453,646.707L628.658,644.187L628.871,641.653L629.084,639.116L629.307,636.564L629.529,634.009L629.76,631.436L629.991,628.858L630.231,626.267L630.471,623.662L630.72,621.053L630.969,618.427L631.227,615.791L631.489,613.142L631.756,610.48L632.027,607.809L632.302,605.12L632.582,602.422L632.871,599.711L633.164,596.987L633.462,594.244L633.764,591.489L634.076,588.724L634.391,585.938L634.711,583.142L635.04,580.324L635.373,577.493L635.711,574.649L636.058,571.787L636.413,568.907L636.773,566.009L637.138,563.093L637.511,560.16L637.893,557.204L638.28,554.236L638.676,551.244L639.076,548.231L639.484,545.2L639.907,542.147L640.329,539.076L640.764,535.978L641.209,532.858L641.662,529.716L642.12,526.551L642.591,523.36L643.071,520.142L643.556,516.902L644.058,513.631L644.564,510.338L645.084,507.013L645.613,503.662L646.151,500.28L646.702,496.871L647.267,493.427L647.84,489.951L648.431,486.444L649.031,482.902L649.64,479.324L650.267,475.711L650.907,472.062L651.56,468.373L652.231,464.644L652.916,460.876L653.613,457.062L654.329,453.204L655.062,449.307L655.813,445.356L656.582,441.36L657.369,437.316L658.173,433.213L659.004,429.062L659.849,424.853L660.72,420.587L661.613,416.258L662.529,411.867L663.471,407.409L664.44,402.884L665.431,398.289L666.458,393.618L667.507,388.867L668.591,384.036L669.711,379.116L670.862,374.107L672.049,369.004L673.276,363.8L674.547,358.493L675.858,353.076L677.213,347.538L678.622,341.876L680.08,336.08L681.591,330.142L683.169,324.058L684.804,317.809L686.511,311.391L688.293,304.782L690.16,297.973L692.111,290.947L694.16,283.684L696.311,276.16L698.587,268.347L700.991,260.222L703.542,251.742L706.258,242.867L709.16,233.542L712.284,223.702L715.658,213.271L719.333,202.138L723.373,190.164L727.862,177.16L732.929,162.84L738.764,146.782L745.702,128.262L754.387,105.871L766.498,75.964L800,0" style="fill:none;stroke:black;stroke-width:18.81px;stroke-linecap:butt;stroke-miterlimit:4;"/> <path d="M800,1600L833.502,1524.04L845.613,1494.13L854.298,1471.74L861.236,1453.22L867.071,1437.16L872.138,1422.84L876.627,1409.84L880.667,1397.86L884.342,1386.73L887.716,1376.3L890.84,1366.46L893.742,1357.13L896.458,1348.26L899.009,1339.78L901.413,1331.65L903.689,1323.84L905.84,1316.32L907.889,1309.05L909.84,1302.03L911.707,1295.22L913.489,1288.61L915.196,1282.19L916.831,1275.94L918.409,1269.86L919.92,1263.92L921.378,1258.12L922.787,1252.46L924.142,1246.92L925.453,1241.51L926.724,1236.2L927.951,1231L929.138,1225.89L930.289,1220.88L931.409,1215.96L932.493,1211.13L933.542,1206.38L934.569,1201.71L935.56,1197.12L936.529,1192.59L937.471,1188.13L938.387,1183.74L939.28,1179.41L940.151,1175.15L940.996,1170.94L941.827,1166.79L942.631,1162.68L943.418,1158.64L944.187,1154.64L944.938,1150.69L945.671,1146.8L946.387,1142.94L947.084,1139.12L947.769,1135.36L948.44,1131.63L949.093,1127.94L949.733,1124.29L950.36,1120.68L950.969,1117.1L951.569,1113.56L952.16,1110.05L952.733,1106.57L953.298,1103.13L953.849,1099.72L954.387,1096.34L954.916,1092.99L955.436,1089.66L955.942,1086.37L956.444,1083.1L956.929,1079.86L957.409,1076.64L957.88,1073.45L958.338,1070.28L958.791,1067.14L959.236,1064.02L959.671,1060.92L960.093,1057.85L960.516,1054.8L960.924,1051.77L961.324,1048.76L961.72,1045.76L962.107,1042.8L962.489,1039.84L962.862,1036.91L963.227,1033.99L963.587,1031.09L963.942,1028.21L964.289,1025.35L964.627,1022.51L964.96,1019.68L965.289,1016.86L965.609,1014.06L965.924,1011.28L966.236,1008.51L966.538,1005.76L966.836,1003.01L967.129,1000.29L967.418,997.578L967.698,994.88L967.973,992.191L968.244,989.52L968.511,986.858L968.773,984.209L969.031,981.573L969.28,978.947L969.529,976.338L969.769,973.733L970.009,971.142L970.24,968.564L970.471,965.991L970.693,963.436L970.916,960.884L971.129,958.347L971.342,955.813L971.547,953.293L971.751,950.782L971.947,948.28L972.142,945.791L972.333,943.307L972.52,940.831L972.702,938.36L972.884,935.902L973.058,933.449L973.231,931.009L973.396,928.569L973.56,926.142L973.72,923.72L973.88,921.307L974.031,918.902L974.182,916.498L974.329,914.107L974.471,911.72L974.609,909.338L974.747,906.964L974.88,904.596L975.009,902.231L975.133,899.876L975.258,897.524L975.378,895.178L975.493,892.84L975.609,890.502L975.72,888.173L975.827,885.849L975.929,883.529L976.031,881.213L976.129,878.902L976.222,876.596L976.316,874.293L976.404,871.996L976.493,869.702L976.573,867.409L976.653,865.124L976.733,862.844L976.804,860.564L976.88,858.289L976.947,856.018L977.013,853.747L977.076,851.484L977.138,849.222L977.196,846.96L977.249,844.707L977.302,842.449L977.351,840.2L977.396,837.951L977.44,835.702L977.48,833.462L977.52,831.218L977.556,828.978L977.587,826.742L977.618,824.502L977.644,822.271L977.671,820.036L977.693,817.804L977.716,815.578L977.729,813.347L977.747,811.12L977.756,808.893L977.764,806.671L977.773,804.444L977.778,802.222L977.778,800L977.778,797.778L977.773,795.556L977.764,793.329L977.756,791.107L977.747,788.88L977.729,786.653L977.716,784.422L977.693,782.196L977.671,779.964L977.644,777.729L977.618,775.498L977.587,773.258L977.556,771.022L977.52,768.782L977.48,766.538L977.44,764.298L977.396,762.049L977.351,759.8L977.302,757.551L977.249,755.293L977.196,753.04L977.138,750.778L977.076,748.516L977.013,746.253L976.947,743.982L976.88,741.711L976.804,739.436L976.733,737.156L976.653,734.876L976.573,732.591L976.493,730.298L976.404,728.004L976.316,725.707L976.222,723.404L976.129,721.098L976.031,718.787L975.929,716.471L975.827,714.151L975.72,711.827L975.609,709.498L975.493,707.16L975.378,704.822L975.258,702.476L975.133,700.124L975.009,697.769L974.88,695.404L974.747,693.036L974.609,690.662L974.471,688.28L974.329,685.893L974.182,683.502L974.031,681.098L973.88,678.693L973.72,676.28L973.56,673.858L973.396,671.431L973.231,668.991L973.058,666.551L972.884,664.098L972.702,661.64L972.52,659.169L972.333,656.693L972.142,654.209L971.947,651.72L971.751,649.218L971.547,646.707L971.342,644.187L971.129,641.653L970.916,639.116L970.693,636.564L970.471,634.009L970.24,631.436L970.009,628.858L969.769,626.267L969.529,623.662L969.28,621.053L969.031,618.427L968.773,615.791L968.511,613.142L968.244,610.48L967.973,607.809L967.698,605.12L967.418,602.422L967.129,599.711L966.836,596.987L966.538,594.244L966.236,591.489L965.924,588.724L965.609,585.938L965.289,583.142L964.96,580.324L964.627,577.493L964.289,574.649L963.942,571.787L963.587,568.907L963.227,566.009L962.862,563.093L962.489,560.16L962.107,557.204L961.72,554.236L961.324,551.244L960.924,548.231L960.516,545.2L960.093,542.147L959.671,539.076L959.236,535.978L958.791,532.858L958.338,529.716L957.88,526.551L957.409,523.36L956.929,520.142L956.444,516.902L955.942,513.631L955.436,510.338L954.916,507.013L954.387,503.662L953.849,500.28L953.298,496.871L952.733,493.427L952.16,489.951L951.569,486.444L950.969,482.902L950.36,479.324L949.733,475.711L949.093,472.062L948.44,468.373L947.769,464.644L947.084,460.876L946.387,457.062L945.671,453.204L944.938,449.307L944.187,445.356L943.418,441.36L942.631,437.316L941.827,433.213L940.996,429.062L940.151,424.853L939.28,420.587L938.387,416.258L937.471,411.867L936.529,407.409L935.56,402.884L934.569,398.289L933.542,393.618L932.493,388.867L931.409,384.036L930.289,379.116L929.138,374.107L927.951,369.004L926.724,363.8L925.453,358.493L924.142,353.076L922.787,347.538L921.378,341.876L919.92,336.08L918.409,330.142L916.831,324.058L915.196,317.809L913.489,311.391L911.707,304.782L909.84,297.973L907.889,290.947L905.84,283.684L903.689,276.16L901.413,268.347L899.009,260.222L896.458,251.742L893.742,242.867L890.84,233.542L887.716,223.702L884.342,213.271L880.667,202.138L876.627,190.164L872.138,177.16L867.071,162.84L861.236,146.782L854.298,128.262L845.613,105.871L833.502,75.964L800,0" style="fill:none;stroke:black;stroke-width:18.81px;stroke-linecap:butt;stroke-miterlimit:4;"/> <path d="M800,1600L714.84,1550.27L682.591,1527.95L659.022,1510.28L639.938,1495.05L623.711,1481.42L609.502,1468.92L596.818,1457.32L585.338,1446.42L574.84,1436.1L565.156,1426.28L556.169,1416.89L547.778,1407.88L539.911,1399.19L532.507,1390.8L525.516,1382.69L518.893,1374.82L512.6,1367.16L506.613,1359.72L500.907,1352.47L495.449,1345.4L490.227,1338.48L485.222,1331.73L480.418,1325.12L475.804,1318.64L471.364,1312.3L467.084,1306.07L462.96,1299.96L458.982,1293.96L455.138,1288.07L451.422,1282.28L447.831,1276.58L444.351,1270.97L440.982,1265.45L437.72,1260.01L434.556,1254.65L431.484,1249.37L428.502,1244.16L425.604,1239.03L422.791,1233.97L420.058,1228.97L417.396,1224.04L414.809,1219.16L412.293,1214.35L409.84,1209.6L407.453,1204.9L405.129,1200.25L402.862,1195.66L400.653,1191.12L398.502,1186.64L396.4,1182.2L394.351,1177.8L392.351,1173.46L390.4,1169.16L388.498,1164.9L386.64,1160.68L384.822,1156.51L383.049,1152.37L381.316,1148.28L379.622,1144.22L377.969,1140.2L376.351,1136.22L374.769,1132.28L373.227,1128.36L371.716,1124.48L370.236,1120.64L368.791,1116.83L367.378,1113.05L365.996,1109.3L364.64,1105.58L363.316,1101.89L362.022,1098.24L360.756,1094.61L359.516,1091L358.298,1087.43L357.111,1083.88L355.947,1080.36L354.809,1076.87L353.693,1073.4L352.6,1069.96L351.529,1066.53L350.484,1063.14L349.458,1059.76L348.453,1056.42L347.471,1053.09L346.511,1049.79L345.569,1046.51L344.644,1043.24L343.742,1040L342.853,1036.79L341.987,1033.59L341.138,1030.41L340.307,1027.25L339.493,1024.12L338.698,1021L337.916,1017.89L337.151,1014.81L336.404,1011.75L335.671,1008.7L334.956,1005.67L334.253,1002.66L333.564,999.667L332.893,996.689L332.231,993.729L331.587,990.782L330.956,987.853L330.338,984.942L329.738,982.044L329.147,979.16L328.564,976.293L328,973.44L327.449,970.6L326.907,967.778L326.378,964.969L325.858,962.173L325.356,959.391L324.858,956.622L324.378,953.867L323.902,951.124L323.444,948.391L322.991,945.676L322.551,942.973L322.124,940.28L321.702,937.6L321.293,934.929L320.898,932.276L320.507,929.631L320.124,926.996L319.756,924.373L319.396,921.764L319.044,919.164L318.702,916.573L318.369,913.996L318.044,911.427L317.729,908.867L317.422,906.32L317.12,903.782L316.831,901.253L316.551,898.733L316.276,896.227L316.009,893.729L315.751,891.236L315.502,888.756L315.262,886.284L315.027,883.818L314.8,881.364L314.582,878.92L314.369,876.48L314.164,874.053L313.969,871.631L313.778,869.218L313.596,866.813L313.422,864.418L313.253,862.027L313.093,859.644L312.938,857.271L312.791,854.902L312.649,852.542L312.511,850.191L312.387,847.844L312.262,845.507L312.147,843.173L312.04,840.849L311.938,838.529L311.84,836.218L311.751,833.911L311.667,831.609L311.591,829.316L311.516,827.027L311.453,824.747L311.391,822.471L311.338,820.2L311.289,817.933L311.249,815.676L311.213,813.422L311.182,811.169L311.156,808.929L311.138,806.689L311.12,804.453L311.116,802.227L311.111,800L311.116,797.773L311.12,795.547L311.138,793.311L311.156,791.071L311.182,788.831L311.213,786.578L311.249,784.324L311.289,782.067L311.338,779.8L311.391,777.529L311.453,775.253L311.516,772.973L311.591,770.684L311.667,768.391L311.751,766.089L311.84,763.782L311.938,761.471L312.04,759.151L312.147,756.827L312.262,754.493L312.387,752.156L312.511,749.809L312.649,747.458L312.791,745.098L312.938,742.729L313.093,740.356L313.253,737.973L313.422,735.582L313.596,733.187L313.778,730.782L313.969,728.369L314.164,725.947L314.369,723.52L314.582,721.08L314.8,718.636L315.027,716.182L315.262,713.716L315.502,711.244L315.751,708.764L316.009,706.271L316.276,703.773L316.551,701.267L316.831,698.747L317.12,696.218L317.422,693.68L317.729,691.133L318.044,688.573L318.369,686.004L318.702,683.427L319.044,680.836L319.396,678.236L319.756,675.627L320.124,673.004L320.507,670.369L320.898,667.724L321.293,665.071L321.702,662.4L322.124,659.72L322.551,657.027L322.991,654.324L323.444,651.609L323.902,648.876L324.378,646.133L324.858,643.378L325.356,640.609L325.858,637.827L326.378,635.031L326.907,632.222L327.449,629.4L328,626.56L328.564,623.707L329.147,620.84L329.738,617.956L330.338,615.058L330.956,612.147L331.587,609.218L332.231,606.271L332.893,603.311L333.564,600.333L334.253,597.338L334.956,594.329L335.671,591.298L336.404,588.253L337.151,585.187L337.916,582.107L338.698,579.004L339.493,575.884L340.307,572.747L341.138,569.591L341.987,566.413L342.853,563.213L343.742,559.996L344.644,556.756L345.569,553.493L346.511,550.213L347.471,546.911L348.453,543.582L349.458,540.236L350.484,536.862L351.529,533.467L352.6,530.044L353.693,526.6L354.809,523.133L355.947,519.636L357.111,516.116L358.298,512.569L359.516,508.996L360.756,505.391L362.022,501.764L363.316,498.107L364.64,494.418L365.996,490.698L367.378,486.951L368.791,483.169L370.236,479.36L371.716,475.516L373.227,471.636L374.769,467.724L376.351,463.778L377.969,459.796L379.622,455.778L381.316,451.72L383.049,447.627L384.822,443.493L386.64,439.316L388.498,435.102L390.4,430.844L392.351,426.542L394.351,422.196L396.4,417.804L398.502,413.364L400.653,408.876L402.862,404.338L405.129,399.747L407.453,395.102L409.84,390.404L412.293,385.653L414.809,380.84L417.396,375.964L420.058,371.031L422.791,366.031L425.604,360.969L428.502,355.836L431.484,350.627L434.556,345.347L437.72,339.991L440.982,334.551L444.351,329.031L447.831,323.422L451.422,317.724L455.138,311.929L458.982,306.036L462.96,300.036L467.084,293.929L471.364,287.702L475.804,281.356L480.418,274.884L485.222,268.271L490.227,261.516L495.449,254.604L500.907,247.529L506.613,240.276L512.6,232.836L518.893,225.182L525.516,217.311L532.507,209.196L539.911,200.809L547.778,192.124L556.169,183.111L565.156,173.72L574.84,163.898L585.338,153.582L596.818,142.684L609.502,131.076L623.711,118.582L639.938,104.947L659.022,89.72L682.591,72.049L714.84,49.733L800,0" style="fill:none;stroke:black;stroke-width:18.81px;stroke-linecap:butt;stroke-miterlimit:4;"/> <path d="M800,1600L885.16,1550.27L917.409,1527.95L940.978,1510.28L960.062,1495.05L976.289,1481.42L990.498,1468.92L1003.18,1457.32L1014.66,1446.42L1025.16,1436.1L1034.84,1426.28L1043.83,1416.89L1052.22,1407.88L1060.09,1399.19L1067.49,1390.8L1074.48,1382.69L1081.11,1374.82L1087.4,1367.16L1093.39,1359.72L1099.09,1352.47L1104.55,1345.4L1109.77,1338.48L1114.78,1331.73L1119.58,1325.12L1124.2,1318.64L1128.64,1312.3L1132.92,1306.07L1137.04,1299.96L1141.02,1293.96L1144.86,1288.07L1148.58,1282.28L1152.17,1276.58L1155.65,1270.97L1159.02,1265.45L1162.28,1260.01L1165.44,1254.65L1168.52,1249.37L1171.5,1244.16L1174.4,1239.03L1177.21,1233.97L1179.94,1228.97L1182.6,1224.04L1185.19,1219.16L1187.71,1214.35L1190.16,1209.6L1192.55,1204.9L1194.87,1200.25L1197.14,1195.66L1199.35,1191.12L1201.5,1186.64L1203.6,1182.2L1205.65,1177.8L1207.65,1173.46L1209.6,1169.16L1211.5,1164.9L1213.36,1160.68L1215.18,1156.51L1216.95,1152.37L1218.68,1148.28L1220.38,1144.22L1222.03,1140.2L1223.65,1136.22L1225.23,1132.28L1226.77,1128.36L1228.28,1124.48L1229.76,1120.64L1231.21,1116.83L1232.62,1113.05L1234,1109.3L1235.36,1105.58L1236.68,1101.89L1237.98,1098.24L1239.24,1094.61L1240.48,1091L1241.7,1087.43L1242.89,1083.88L1244.05,1080.36L1245.19,1076.87L1246.31,1073.4L1247.4,1069.96L1248.47,1066.53L1249.52,1063.14L1250.54,1059.76L1251.55,1056.42L1252.53,1053.09L1253.49,1049.79L1254.43,1046.51L1255.36,1043.24L1256.26,1040L1257.15,1036.79L1258.01,1033.59L1258.86,1030.41L1259.69,1027.25L1260.51,1024.12L1261.3,1021L1262.08,1017.89L1262.85,1014.81L1263.6,1011.75L1264.33,1008.7L1265.04,1005.67L1265.75,1002.66L1266.44,999.667L1267.11,996.689L1267.77,993.729L1268.41,990.782L1269.04,987.853L1269.66,984.942L1270.26,982.044L1270.85,979.16L1271.44,976.293L1272,973.44L1272.55,970.6L1273.09,967.778L1273.62,964.969L1274.14,962.173L1274.64,959.391L1275.14,956.622L1275.62,953.867L1276.1,951.124L1276.56,948.391L1277.01,945.676L1277.45,942.973L1277.88,940.28L1278.3,937.6L1278.71,934.929L1279.1,932.276L1279.49,929.631L1279.88,926.996L1280.24,924.373L1280.6,921.764L1280.96,919.164L1281.3,916.573L1281.63,913.996L1281.96,911.427L1282.27,908.867L1282.58,906.32L1282.88,903.782L1283.17,901.253L1283.45,898.733L1283.72,896.227L1283.99,893.729L1284.25,891.236L1284.5,888.756L1284.74,886.284L1284.97,883.818L1285.2,881.364L1285.42,878.92L1285.63,876.48L1285.84,874.053L1286.03,871.631L1286.22,869.218L1286.4,866.813L1286.58,864.418L1286.75,862.027L1286.91,859.644L1287.06,857.271L1287.21,854.902L1287.35,852.542L1287.49,850.191L1287.61,847.844L1287.74,845.507L1287.85,843.173L1287.96,840.849L1288.06,838.529L1288.16,836.218L1288.25,833.911L1288.33,831.609L1288.41,829.316L1288.48,827.027L1288.55,824.747L1288.61,822.471L1288.66,820.2L1288.71,817.933L1288.75,815.676L1288.79,813.422L1288.82,811.169L1288.84,808.929L1288.86,806.689L1288.88,804.453L1288.88,802.227L1288.89,800L1288.88,797.773L1288.88,795.547L1288.86,793.311L1288.84,791.071L1288.82,788.831L1288.79,786.578L1288.75,784.324L1288.71,782.067L1288.66,779.8L1288.61,777.529L1288.55,775.253L1288.48,772.973L1288.41,770.684L1288.33,768.391L1288.25,766.089L1288.16,763.782L1288.06,761.471L1287.96,759.151L1287.85,756.827L1287.74,754.493L1287.61,752.156L1287.49,749.809L1287.35,747.458L1287.21,745.098L1287.06,742.729L1286.91,740.356L1286.75,737.973L1286.58,735.582L1286.4,733.187L1286.22,730.782L1286.03,728.369L1285.84,725.947L1285.63,723.52L1285.42,721.08L1285.2,718.636L1284.97,716.182L1284.74,713.716L1284.5,711.244L1284.25,708.764L1283.99,706.271L1283.72,703.773L1283.45,701.267L1283.17,698.747L1282.88,696.218L1282.58,693.68L1282.27,691.133L1281.96,688.573L1281.63,686.004L1281.3,683.427L1280.96,680.836L1280.6,678.236L1280.24,675.627L1279.88,673.004L1279.49,670.369L1279.1,667.724L1278.71,665.071L1278.3,662.4L1277.88,659.72L1277.45,657.027L1277.01,654.324L1276.56,651.609L1276.1,648.876L1275.62,646.133L1275.14,643.378L1274.64,640.609L1274.14,637.827L1273.62,635.031L1273.09,632.222L1272.55,629.4L1272,626.56L1271.44,623.707L1270.85,620.84L1270.26,617.956L1269.66,615.058L1269.04,612.147L1268.41,609.218L1267.77,606.271L1267.11,603.311L1266.44,600.333L1265.75,597.338L1265.04,594.329L1264.33,591.298L1263.6,588.253L1262.85,585.187L1262.08,582.107L1261.3,579.004L1260.51,575.884L1259.69,572.747L1258.86,569.591L1258.01,566.413L1257.15,563.213L1256.26,559.996L1255.36,556.756L1254.43,553.493L1253.49,550.213L1252.53,546.911L1251.55,543.582L1250.54,540.236L1249.52,536.862L1248.47,533.467L1247.4,530.044L1246.31,526.6L1245.19,523.133L1244.05,519.636L1242.89,516.116L1241.7,512.569L1240.48,508.996L1239.24,505.391L1237.98,501.764L1236.68,498.107L1235.36,494.418L1234,490.698L1232.62,486.951L1231.21,483.169L1229.76,479.36L1228.28,475.516L1226.77,471.636L1225.23,467.724L1223.65,463.778L1222.03,459.796L1220.38,455.778L1218.68,451.72L1216.95,447.627L1215.18,443.493L1213.36,439.316L1211.5,435.102L1209.6,430.844L1207.65,426.542L1205.65,422.196L1203.6,417.804L1201.5,413.364L1199.35,408.876L1197.14,404.338L1194.87,399.747L1192.55,395.102L1190.16,390.404L1187.71,385.653L1185.19,380.84L1182.6,375.964L1179.94,371.031L1177.21,366.031L1174.4,360.969L1171.5,355.836L1168.52,350.627L1165.44,345.347L1162.28,339.991L1159.02,334.551L1155.65,329.031L1152.17,323.422L1148.58,317.724L1144.86,311.929L1141.02,306.036L1137.04,300.036L1132.92,293.929L1128.64,287.702L1124.2,281.356L1119.58,274.884L1114.78,268.271L1109.77,261.516L1104.55,254.604L1099.09,247.529L1093.39,240.276L1087.4,232.836L1081.11,225.182L1074.48,217.311L1067.49,209.196L1060.09,200.809L1052.22,192.124L1043.83,183.111L1034.84,173.72L1025.16,163.898L1014.66,153.582L1003.18,142.684L990.498,131.076L976.289,118.582L960.062,104.947L940.978,89.72L917.409,72.049L885.16,49.733L800,0" style="fill:none;stroke:black;stroke-width:18.81px;stroke-linecap:butt;stroke-miterlimit:4;"/> <path d="M61.538,1107.69L63.609,1107.32L65.676,1106.96L67.747,1106.6L69.818,1106.23L71.884,1105.87L73.956,1105.51L76.027,1105.15L78.098,1104.79L80.164,1104.43L82.236,1104.07L84.307,1103.72L86.378,1103.36L88.449,1103L90.52,1102.65L92.591,1102.3L94.662,1101.95L96.733,1101.6L98.804,1101.25L100.876,1100.9L102.947,1100.56L105.018,1100.21L107.089,1099.87L109.16,1099.52L111.231,1099.18L113.307,1098.84L115.378,1098.5L117.449,1098.16L119.52,1097.82L121.591,1097.48L123.667,1097.14L125.738,1096.81L127.809,1096.48L129.88,1096.14L131.956,1095.81L134.027,1095.48L136.098,1095.15L138.173,1094.82L140.244,1094.49L142.32,1094.16L144.391,1093.84L146.462,1093.51L148.538,1093.19L150.609,1092.86L152.684,1092.54L154.756,1092.22L156.827,1091.9L158.902,1091.58L160.973,1091.27L163.049,1090.95L165.12,1090.63L167.196,1090.32L169.267,1090L171.342,1089.69L173.413,1089.38L175.489,1089.07L177.56,1088.76L179.636,1088.45L181.707,1088.15L183.782,1087.84L185.853,1087.53L187.929,1087.23L190,1086.93L192.076,1086.63L194.147,1086.32L196.222,1086.03L198.293,1085.72L200.369,1085.43L202.44,1085.13L204.516,1084.84L206.587,1084.54L208.662,1084.25L210.733,1083.96L212.809,1083.66L214.88,1083.37L216.956,1083.08L219.027,1082.8L221.102,1082.51L223.173,1082.22L225.244,1081.94L227.32,1081.65L229.391,1081.37L231.467,1081.09L233.538,1080.81L235.609,1080.53L237.684,1080.25L239.756,1079.97L241.831,1079.69L243.902,1079.42L245.973,1079.15L248.044,1078.87L250.12,1078.6L252.191,1078.33L254.262,1078.06L256.333,1077.79L258.409,1077.52L260.48,1077.25L262.551,1076.99L264.622,1076.72L266.693,1076.46L268.764,1076.19L270.84,1075.93L272.911,1075.67L274.982,1075.41L277.053,1075.15L279.124,1074.89L281.196,1074.64L283.267,1074.38L285.338,1074.13L287.409,1073.88L289.476,1073.62L291.547,1073.37L293.618,1073.12L295.689,1072.87L297.76,1072.62L299.827,1072.37L301.898,1072.13L303.969,1071.88L306.04,1071.64L308.107,1071.4L310.178,1071.16L312.244,1070.91L314.316,1070.67L316.382,1070.44L318.453,1070.2L320.52,1069.96L322.591,1069.72L324.658,1069.49L326.724,1069.25L328.796,1069.02L330.862,1068.79L332.929,1068.56L334.996,1068.33L337.067,1068.1L339.133,1067.88L341.2,1067.65L343.267,1067.42L345.333,1067.2L347.4,1066.98L349.467,1066.76L351.529,1066.53L353.596,1066.32L355.662,1066.09L357.729,1065.88L359.796,1065.66L361.858,1065.44L363.924,1065.23L365.987,1065.02L368.053,1064.8L370.116,1064.59L372.182,1064.38L374.244,1064.17L376.311,1063.96L378.373,1063.76L380.436,1063.55L382.498,1063.34L384.56,1063.14L386.627,1062.94L388.689,1062.73L390.751,1062.53L392.813,1062.33L394.871,1062.13L396.933,1061.94L398.996,1061.74L401.058,1061.54L403.12,1061.35L405.178,1061.16L407.24,1060.96L409.298,1060.77L411.36,1060.58L413.418,1060.39L415.48,1060.2L417.538,1060.01L419.596,1059.83L421.653,1059.64L423.716,1059.46L425.773,1059.27L427.831,1059.09L429.889,1058.91L431.947,1058.73L434,1058.55L436.058,1058.37L438.116,1058.19L440.173,1058.02L442.227,1057.84L444.284,1057.67L446.338,1057.49L448.396,1057.32L450.449,1057.15L452.502,1056.98L454.56,1056.81L456.613,1056.64L458.667,1056.48L460.72,1056.31L462.773,1056.15L464.827,1055.98L466.88,1055.82L468.933,1055.66L470.987,1055.5L473.036,1055.34L475.089,1055.18L477.142,1055.02L479.191,1054.86L481.24,1054.71L483.293,1054.56L485.342,1054.4L487.391,1054.25L489.444,1054.1L491.493,1053.95L493.542,1053.8L495.591,1053.65L497.64,1053.5L499.689,1053.36L501.733,1053.21L503.782,1053.06L505.831,1052.92L507.876,1052.78L509.924,1052.64L511.969,1052.5L514.018,1052.36L516.062,1052.22L518.107,1052.08L520.151,1051.95L522.2,1051.81L524.244,1051.68L526.289,1051.54L528.329,1051.41L530.373,1051.28L532.418,1051.15L534.462,1051.02L536.507,1050.89L538.547,1050.76L540.591,1050.64L542.631,1050.52L544.671,1050.39L546.716,1050.27L548.756,1050.15L550.796,1050.02L552.836,1049.9L554.876,1049.79L556.916,1049.67L558.956,1049.55L560.996,1049.44L563.036,1049.32L565.076,1049.2L567.111,1049.09L569.151,1048.98L571.187,1048.87L573.227,1048.76L575.262,1048.65L577.298,1048.54L579.338,1048.44L581.373,1048.33L583.409,1048.22L585.444,1048.12L587.48,1048.02L589.516,1047.92L591.551,1047.81L593.587,1047.72L595.618,1047.61L597.653,1047.52L599.689,1047.42L601.72,1047.32L603.756,1047.23L605.787,1047.13L607.822,1047.04L609.853,1046.95L611.884,1046.86L613.916,1046.77L615.947,1046.68L617.978,1046.59L620.009,1046.51L622.04,1046.42L624.071,1046.33L626.102,1046.25L628.133,1046.16L630.164,1046.08L632.191,1046L634.222,1045.92L636.249,1045.84L638.28,1045.76L640.307,1045.69L642.338,1045.61L644.364,1045.54L646.391,1045.46L648.418,1045.39L650.444,1045.32L652.476,1045.24L654.502,1045.17L656.529,1045.11L658.551,1045.04L660.578,1044.97L662.604,1044.9L664.631,1044.84L666.658,1044.77L668.68,1044.71L670.707,1044.65L672.733,1044.59L674.756,1044.52L676.782,1044.47L678.804,1044.41L680.831,1044.35L682.853,1044.29L684.876,1044.24L686.898,1044.18L688.924,1044.13L690.947,1044.08L692.969,1044.03L694.991,1043.97L697.013,1043.92L699.036,1043.88L701.058,1043.83L703.08,1043.78L705.102,1043.73L707.124,1043.69L709.147,1043.64L711.169,1043.6L713.187,1043.56L715.209,1043.52L717.231,1043.48L719.249,1043.44L721.271,1043.4L723.293,1043.36L725.311,1043.33L727.333,1043.29L729.351,1043.26L731.373,1043.23L733.391,1043.2L735.413,1043.16L737.431,1043.13L739.449,1043.1L741.471,1043.08L743.489,1043.05L745.507,1043.02L747.529,1043L749.547,1042.97L751.564,1042.95L753.582,1042.92L755.604,1042.9L757.622,1042.88L759.64,1042.86L761.658,1042.84L763.676,1042.83L765.693,1042.81L767.716,1042.79L769.733,1042.78L771.751,1042.76L773.769,1042.75L775.787,1042.74L777.804,1042.73L779.822,1042.72L781.84,1042.71L783.858,1042.7L785.876,1042.69L787.893,1042.69L789.911,1042.68L791.929,1042.68L793.947,1042.68L795.964,1042.67L804.036,1042.67L806.053,1042.68L808.071,1042.68L810.089,1042.68L812.107,1042.69L814.124,1042.69L816.142,1042.7L818.16,1042.71L820.178,1042.72L824.213,1042.74L832.284,1042.79L834.307,1042.81L842.378,1042.88L844.396,1042.9L846.418,1042.92L850.453,1042.97L852.471,1043L854.493,1043.02L858.529,1043.08L860.551,1043.1L864.587,1043.16L866.609,1043.2L868.627,1043.23L870.649,1043.26L872.667,1043.29L874.689,1043.33L876.707,1043.36L878.729,1043.4L880.751,1043.44L882.769,1043.48L886.813,1043.56L888.831,1043.6L890.853,1043.64L894.898,1043.73L896.92,1043.78L898.942,1043.83L905.009,1043.97L907.031,1044.03L909.053,1044.08L911.076,1044.13L913.102,1044.18L915.124,1044.24L917.147,1044.29L919.169,1044.35L921.196,1044.41L923.218,1044.47L925.244,1044.52L927.267,1044.59L931.32,1044.71L933.342,1044.77L935.369,1044.84L937.396,1044.9L941.449,1045.04L943.471,1045.11L945.498,1045.17L947.524,1045.24L949.556,1045.32L951.582,1045.39L953.609,1045.46L957.662,1045.61L959.693,1045.69L961.72,1045.76L963.751,1045.84L965.778,1045.92L967.809,1046L969.836,1046.08L971.867,1046.16L977.96,1046.42L979.991,1046.51L982.022,1046.59L988.116,1046.86L990.147,1046.95L992.178,1047.04L994.213,1047.13L996.244,1047.23L998.28,1047.32L1000.31,1047.42L1004.38,1047.61L1006.41,1047.72L1008.45,1047.81L1016.59,1048.22L1020.66,1048.44L1022.7,1048.54L1024.74,1048.65L1026.77,1048.76L1028.81,1048.87L1030.85,1048.98L1032.89,1049.09L1034.92,1049.2L1043.08,1049.67L1045.12,1049.79L1047.16,1049.9L1049.2,1050.02L1051.24,1050.15L1053.28,1050.27L1055.33,1050.39L1059.41,1050.64L1061.45,1050.76L1063.49,1050.89L1071.67,1051.41L1073.71,1051.54L1077.8,1051.81L1079.85,1051.95L1081.89,1052.08L1085.98,1052.36L1088.03,1052.5L1090.08,1052.64L1092.12,1052.78L1094.17,1052.92L1096.22,1053.06L1098.27,1053.21L1100.31,1053.36L1106.46,1053.8L1110.56,1054.1L1112.61,1054.25L1114.66,1054.4L1116.71,1054.56L1118.76,1054.71L1120.81,1054.86L1122.86,1055.02L1124.91,1055.18L1126.96,1055.34L1129.01,1055.5L1133.12,1055.82L1141.33,1056.48L1145.44,1056.81L1147.5,1056.98L1149.55,1057.15L1151.6,1057.32L1153.66,1057.49L1155.72,1057.67L1157.77,1057.84L1159.83,1058.02L1161.88,1058.19L1166,1058.55L1168.05,1058.73L1170.11,1058.91L1174.23,1059.27L1176.28,1059.46L1178.35,1059.64L1184.52,1060.2L1186.58,1060.39L1188.64,1060.58L1190.7,1060.77L1192.76,1060.96L1194.82,1061.16L1196.88,1061.35L1201,1061.74L1203.07,1061.94L1205.13,1062.13L1207.19,1062.33L1211.31,1062.73L1213.37,1062.94L1215.44,1063.14L1217.5,1063.34L1219.56,1063.55L1221.63,1063.76L1223.69,1063.96L1225.76,1064.17L1227.82,1064.38L1229.88,1064.59L1231.95,1064.8L1234.01,1065.02L1236.08,1065.23L1238.14,1065.44L1240.2,1065.66L1242.27,1065.88L1244.34,1066.09L1246.4,1066.32L1248.47,1066.53L1250.53,1066.76L1256.73,1067.42L1262.93,1068.1L1265,1068.33L1267.07,1068.56L1271.2,1069.02L1273.28,1069.25L1277.41,1069.72L1279.48,1069.96L1281.55,1070.2L1283.62,1070.44L1285.68,1070.67L1287.76,1070.91L1289.82,1071.16L1291.89,1071.4L1293.96,1071.64L1300.17,1072.37L1302.24,1072.62L1308.45,1073.37L1310.52,1073.62L1312.59,1073.88L1318.8,1074.64L1325.02,1075.41L1329.16,1075.93L1331.24,1076.19L1333.31,1076.46L1335.38,1076.72L1341.59,1077.52L1343.67,1077.79L1349.88,1078.6L1351.96,1078.87L1354.03,1079.15L1356.1,1079.42L1358.17,1079.69L1360.24,1079.97L1362.32,1080.25L1364.39,1080.53L1368.53,1081.09L1370.61,1081.37L1372.68,1081.65L1374.76,1081.94L1376.83,1082.22L1378.9,1082.51L1380.97,1082.8L1383.04,1083.08L1385.12,1083.37L1387.19,1083.66L1389.27,1083.96L1391.34,1084.25L1393.41,1084.54L1395.48,1084.84L1397.56,1085.13L1399.63,1085.43L1401.71,1085.72L1403.78,1086.03L1405.85,1086.32L1407.92,1086.63L1410,1086.93L1412.07,1087.23L1414.15,1087.53L1416.22,1087.84L1418.29,1088.15L1420.36,1088.45L1422.44,1088.76L1424.51,1089.07L1426.59,1089.38L1428.66,1089.69L1430.73,1090L1432.8,1090.32L1434.88,1090.63L1436.95,1090.95L1439.03,1091.27L1441.1,1091.58L1443.17,1091.9L1447.32,1092.54L1449.39,1092.86L1451.46,1093.19L1453.54,1093.51L1457.68,1094.16L1459.76,1094.49L1461.83,1094.82L1463.9,1095.15L1465.97,1095.48L1468.04,1095.81L1470.12,1096.14L1476.33,1097.14L1478.41,1097.48L1482.55,1098.16L1484.62,1098.5L1486.69,1098.84L1488.77,1099.18L1490.84,1099.52L1492.91,1099.87L1494.98,1100.21L1501.2,1101.25L1511.55,1103L1517.76,1104.07L1519.84,1104.43L1521.9,1104.79L1526.04,1105.51L1528.12,1105.87L1530.18,1106.23L1534.32,1106.96L1536.39,1107.32L1538.46,1107.69" style="fill:none;stroke:black;stroke-width:18.81px;stroke-linecap:butt;stroke-miterlimit:4;"/> <path d="M61.538,492.307L63.609,492.676L65.676,493.04L69.818,493.769L71.884,494.129L73.956,494.493L78.098,495.213L80.164,495.569L82.236,495.929L88.449,496.996L98.804,498.751L105.018,499.791L107.089,500.133L109.16,500.48L111.231,500.822L113.307,501.164L115.378,501.502L117.449,501.844L121.591,502.52L123.667,502.858L129.88,503.858L131.956,504.191L134.027,504.524L136.098,504.853L138.173,505.182L140.244,505.511L142.32,505.84L146.462,506.489L148.538,506.813L150.609,507.138L152.684,507.458L156.827,508.098L158.902,508.418L160.973,508.733L163.049,509.053L165.12,509.369L167.196,509.68L169.267,509.996L171.342,510.307L173.413,510.618L175.489,510.929L177.56,511.24L179.636,511.547L181.707,511.853L183.782,512.16L185.853,512.467L187.929,512.769L190,513.071L192.076,513.373L194.147,513.676L196.222,513.973L198.293,514.276L200.369,514.573L202.44,514.867L204.516,515.164L206.587,515.458L208.662,515.751L210.733,516.044L212.809,516.338L214.88,516.627L216.956,516.916L219.027,517.204L221.102,517.489L223.173,517.778L225.244,518.062L227.32,518.347L229.391,518.631L231.467,518.911L235.609,519.471L237.684,519.751L239.756,520.027L241.831,520.307L243.902,520.582L245.973,520.853L248.044,521.129L250.12,521.4L256.333,522.213L258.409,522.48L264.622,523.28L266.693,523.542L268.764,523.809L270.84,524.067L274.982,524.591L281.196,525.364L287.409,526.124L289.476,526.378L291.547,526.631L297.76,527.378L299.827,527.627L306.04,528.36L308.107,528.604L310.178,528.844L312.244,529.089L314.316,529.329L316.382,529.564L318.453,529.804L320.52,530.04L322.591,530.276L326.724,530.747L328.796,530.978L332.929,531.44L334.996,531.667L337.067,531.898L343.267,532.578L349.467,533.244L351.529,533.467L353.596,533.684L355.662,533.907L357.729,534.124L359.796,534.338L361.858,534.556L363.924,534.769L365.987,534.982L368.053,535.196L370.116,535.409L372.182,535.618L374.244,535.827L376.311,536.036L378.373,536.244L380.436,536.449L382.498,536.658L384.56,536.862L386.627,537.062L388.689,537.267L392.813,537.667L394.871,537.867L396.933,538.062L398.996,538.262L403.12,538.653L405.178,538.844L407.24,539.04L409.298,539.231L411.36,539.422L413.418,539.609L415.48,539.8L421.653,540.36L423.716,540.542L425.773,540.729L429.889,541.093L431.947,541.271L434,541.453L438.116,541.809L440.173,541.982L442.227,542.16L444.284,542.333L446.338,542.507L448.396,542.676L450.449,542.849L452.502,543.018L454.56,543.187L458.667,543.524L466.88,544.182L470.987,544.502L473.036,544.662L475.089,544.822L477.142,544.978L479.191,545.138L481.24,545.293L483.293,545.444L485.342,545.6L487.391,545.751L489.444,545.902L493.542,546.204L499.689,546.644L501.733,546.791L503.782,546.938L505.831,547.08L507.876,547.222L509.924,547.364L511.969,547.502L514.018,547.644L518.107,547.92L520.151,548.053L522.2,548.191L526.289,548.458L528.329,548.591L536.507,549.107L538.547,549.236L540.591,549.36L544.671,549.609L546.716,549.733L548.756,549.853L550.796,549.978L552.836,550.098L554.876,550.213L556.916,550.333L565.076,550.796L567.111,550.907L569.151,551.022L571.187,551.133L573.227,551.24L575.262,551.351L577.298,551.458L579.338,551.564L583.409,551.778L591.551,552.187L593.587,552.284L595.618,552.387L599.689,552.582L601.72,552.676L603.756,552.773L605.787,552.867L607.822,552.96L609.853,553.049L611.884,553.142L617.978,553.409L620.009,553.493L622.04,553.582L628.133,553.836L630.164,553.916L632.191,553.996L634.222,554.076L636.249,554.156L638.28,554.236L640.307,554.311L642.338,554.387L646.391,554.538L648.418,554.609L650.444,554.684L652.476,554.756L654.502,554.827L656.529,554.893L658.551,554.964L662.604,555.098L664.631,555.16L666.658,555.227L668.68,555.289L672.733,555.413L674.756,555.476L676.782,555.533L678.804,555.591L680.831,555.649L682.853,555.707L684.876,555.76L686.898,555.818L688.924,555.871L690.947,555.924L692.969,555.973L694.991,556.027L701.058,556.173L703.08,556.218L705.102,556.267L709.147,556.356L711.169,556.396L713.187,556.44L717.231,556.52L719.249,556.56L721.271,556.596L723.293,556.636L725.311,556.671L727.333,556.707L729.351,556.738L731.373,556.773L733.391,556.804L735.413,556.836L739.449,556.898L741.471,556.924L745.507,556.978L747.529,557.004L749.547,557.031L753.582,557.076L755.604,557.098L757.622,557.12L765.693,557.191L767.716,557.209L775.787,557.262L779.822,557.28L781.84,557.293L783.858,557.298L785.876,557.307L787.893,557.311L789.911,557.32L791.929,557.324L793.947,557.324L795.964,557.329L804.036,557.329L806.053,557.324L808.071,557.324L810.089,557.32L812.107,557.311L814.124,557.307L816.142,557.298L818.16,557.293L820.178,557.28L822.196,557.271L824.213,557.262L826.231,557.249L828.249,557.236L830.267,557.222L832.284,557.209L834.307,557.191L836.324,557.173L838.342,557.156L840.36,557.138L842.378,557.12L844.396,557.098L846.418,557.076L848.436,557.053L850.453,557.031L852.471,557.004L854.493,556.978L856.511,556.951L858.529,556.924L860.551,556.898L862.569,556.867L864.587,556.836L866.609,556.804L868.627,556.773L870.649,556.738L872.667,556.707L874.689,556.671L876.707,556.636L878.729,556.596L880.751,556.56L882.769,556.52L884.791,556.48L886.813,556.44L888.831,556.396L890.853,556.356L892.876,556.311L894.898,556.267L896.92,556.218L898.942,556.173L900.964,556.124L902.987,556.076L905.009,556.027L907.031,555.973L909.053,555.924L911.076,555.871L913.102,555.818L915.124,555.76L917.147,555.707L919.169,555.649L921.196,555.591L923.218,555.533L925.244,555.476L927.267,555.413L929.293,555.351L931.32,555.289L933.342,555.227L935.369,555.16L937.396,555.098L939.422,555.031L941.449,554.964L943.471,554.893L945.498,554.827L947.524,554.756L949.556,554.684L951.582,554.609L953.609,554.538L955.636,554.462L957.662,554.387L959.693,554.311L961.72,554.236L963.751,554.156L965.778,554.076L967.809,553.996L969.836,553.916L971.867,553.836L973.898,553.751L975.929,553.667L977.96,553.582L979.991,553.493L982.022,553.409L984.053,553.32L986.084,553.231L988.116,553.142L990.147,553.049L992.178,552.96L994.213,552.867L996.244,552.773L998.28,552.676L1000.31,552.582L1002.35,552.484L1004.38,552.387L1006.41,552.284L1008.45,552.187L1010.48,552.084L1012.52,551.982L1014.56,551.88L1016.59,551.778L1018.63,551.671L1020.66,551.564L1022.7,551.458L1024.74,551.351L1026.77,551.24L1028.81,551.133L1030.85,551.022L1032.89,550.907L1034.92,550.796L1036.96,550.68L1039,550.564L1041.04,550.449L1043.08,550.333L1045.12,550.213L1047.16,550.098L1049.2,549.978L1051.24,549.853L1053.28,549.733L1055.33,549.609L1057.37,549.484L1059.41,549.36L1061.45,549.236L1063.49,549.107L1065.54,548.978L1067.58,548.849L1069.63,548.72L1071.67,548.591L1073.71,548.458L1075.76,548.324L1077.8,548.191L1079.85,548.053L1081.89,547.92L1083.94,547.782L1085.98,547.644L1088.03,547.502L1090.08,547.364L1092.12,547.222L1094.17,547.08L1096.22,546.938L1098.27,546.791L1100.31,546.644L1102.36,546.498L1104.41,546.351L1106.46,546.204L1108.51,546.053L1110.56,545.902L1112.61,545.751L1114.66,545.6L1116.71,545.444L1118.76,545.293L1120.81,545.138L1122.86,544.978L1124.91,544.822L1126.96,544.662L1129.01,544.502L1131.07,544.342L1133.12,544.182L1135.17,544.018L1137.23,543.853L1139.28,543.689L1141.33,543.524L1143.39,543.356L1145.44,543.187L1147.5,543.018L1149.55,542.849L1151.6,542.676L1153.66,542.507L1155.72,542.333L1157.77,542.16L1159.83,541.982L1161.88,541.809L1163.94,541.631L1166,541.453L1168.05,541.271L1170.11,541.093L1172.17,540.911L1174.23,540.729L1176.28,540.542L1178.35,540.36L1180.4,540.173L1182.46,539.987L1184.52,539.8L1186.58,539.609L1188.64,539.422L1190.7,539.231L1192.76,539.04L1194.82,538.844L1196.88,538.653L1198.94,538.458L1201,538.262L1203.07,538.062L1205.13,537.867L1207.19,537.667L1209.25,537.467L1211.31,537.267L1213.37,537.062L1215.44,536.862L1217.5,536.658L1219.56,536.449L1221.63,536.244L1223.69,536.036L1225.76,535.827L1227.82,535.618L1229.88,535.409L1231.95,535.196L1234.01,534.982L1236.08,534.769L1238.14,534.556L1240.2,534.338L1242.27,534.124L1244.34,533.907L1246.4,533.684L1248.47,533.467L1250.53,533.244L1252.6,533.022L1254.67,532.8L1256.73,532.578L1258.8,532.351L1260.87,532.124L1262.93,531.898L1265,531.667L1267.07,531.44L1269.14,531.209L1271.2,530.978L1273.28,530.747L1275.34,530.511L1277.41,530.276L1279.48,530.04L1281.55,529.804L1283.62,529.564L1285.68,529.329L1287.76,529.089L1289.82,528.844L1291.89,528.604L1293.96,528.36L1296.03,528.116L1298.1,527.871L1300.17,527.627L1302.24,527.378L1304.31,527.129L1306.38,526.88L1308.45,526.631L1310.52,526.378L1312.59,526.124L1314.66,525.871L1316.73,525.618L1318.8,525.364L1320.88,525.107L1322.95,524.849L1325.02,524.591L1327.09,524.329L1329.16,524.067L1331.24,523.809L1333.31,523.542L1335.38,523.28L1337.45,523.013L1339.52,522.747L1341.59,522.48L1343.67,522.213L1345.74,521.942L1347.81,521.671L1349.88,521.4L1351.96,521.129L1354.03,520.853L1356.1,520.582L1358.17,520.307L1360.24,520.027L1362.32,519.751L1364.39,519.471L1366.46,519.191L1368.53,518.911L1370.61,518.631L1372.68,518.347L1374.76,518.062L1376.83,517.778L1378.9,517.489L1380.97,517.204L1383.04,516.916L1385.12,516.627L1387.19,516.338L1389.27,516.044L1391.34,515.751L1393.41,515.458L1395.48,515.164L1397.56,514.867L1399.63,514.573L1401.71,514.276L1403.78,513.973L1405.85,513.676L1407.92,513.373L1410,513.071L1412.07,512.769L1414.15,512.467L1416.22,512.16L1418.29,511.853L1420.36,511.547L1422.44,511.24L1424.51,510.929L1426.59,510.618L1428.66,510.307L1430.73,509.996L1432.8,509.68L1434.88,509.369L1436.95,509.053L1439.03,508.733L1441.1,508.418L1443.17,508.098L1445.24,507.778L1447.32,507.458L1449.39,507.138L1451.46,506.813L1453.54,506.489L1455.61,506.164L1457.68,505.84L1459.76,505.511L1461.83,505.182L1463.9,504.853L1465.97,504.524L1468.04,504.191L1470.12,503.858L1472.19,503.524L1474.26,503.191L1476.33,502.858L1478.41,502.52L1480.48,502.182L1482.55,501.844L1484.62,501.502L1486.69,501.164L1488.77,500.822L1490.84,500.48L1492.91,500.133L1494.98,499.791L1497.05,499.444L1499.12,499.098L1501.2,498.751L1503.27,498.4L1505.34,498.049L1507.41,497.698L1509.48,497.347L1511.55,496.996L1513.62,496.64L1515.69,496.284L1517.76,495.929L1519.84,495.569L1521.9,495.213L1523.97,494.853L1526.04,494.493L1528.12,494.129L1530.18,493.769L1532.25,493.404L1534.32,493.04L1536.39,492.676L1538.46,492.307" style="fill:none;stroke:black;stroke-width:18.81px;stroke-linecap:butt;stroke-miterlimit:4;"/> <path d="M320,1440L321.147,1439.19L322.293,1438.39L323.444,1437.58L324.596,1436.78L325.747,1435.98L326.902,1435.18L328.058,1434.38L329.218,1433.59L330.378,1432.8L331.538,1432L332.702,1431.21L333.867,1430.42L335.036,1429.64L336.204,1428.85L337.373,1428.07L338.547,1427.28L339.72,1426.5L340.898,1425.72L342.076,1424.95L343.253,1424.17L344.436,1423.4L345.618,1422.63L346.804,1421.86L347.991,1421.09L349.178,1420.32L350.364,1419.56L351.556,1418.79L352.751,1418.03L353.947,1417.27L355.142,1416.52L356.338,1415.76L357.538,1415L358.742,1414.25L359.942,1413.5L361.147,1412.75L362.356,1412L363.56,1411.26L364.769,1410.52L365.982,1409.78L367.196,1409.04L368.409,1408.3L369.622,1407.56L370.84,1406.83L372.062,1406.1L373.28,1405.37L374.502,1404.64L375.729,1403.92L376.951,1403.19L378.178,1402.47L379.409,1401.75L380.636,1401.03L381.871,1400.31L383.102,1399.6L384.338,1398.88L385.573,1398.17L386.809,1397.47L388.049,1396.76L389.289,1396.05L390.533,1395.35L391.773,1394.65L393.022,1393.95L394.267,1393.25L395.516,1392.56L396.764,1391.86L398.013,1391.17L399.267,1390.48L400.52,1389.8L401.778,1389.11L403.031,1388.43L404.289,1387.75L405.551,1387.07L406.813,1386.39L408.076,1385.72L409.338,1385.04L410.6,1384.37L411.867,1383.7L413.138,1383.04L414.404,1382.37L415.676,1381.71L416.947,1381.05L418.222,1380.39L419.498,1379.73L420.773,1379.08L422.049,1378.43L423.329,1377.78L424.609,1377.13L425.889,1376.48L427.169,1375.84L428.453,1375.2L429.738,1374.56L431.027,1373.92L432.311,1373.29L433.6,1372.65L434.893,1372.02L436.182,1371.4L437.476,1370.77L438.769,1370.14L440.062,1369.52L441.36,1368.9L442.658,1368.28L443.956,1367.67L445.258,1367.05L446.556,1366.44L447.858,1365.83L449.16,1365.23L450.467,1364.62L451.773,1364.02L453.08,1363.42L454.387,1362.82L455.698,1362.22L457.004,1361.63L458.316,1361.04L459.631,1360.45L460.942,1359.86L462.258,1359.28L463.573,1358.69L464.889,1358.12L466.209,1357.54L467.524,1356.96L468.844,1356.39L470.164,1355.82L471.489,1355.25L472.809,1354.68L474.133,1354.12L475.458,1353.56L476.787,1353L478.111,1352.44L479.44,1351.88L480.769,1351.33L482.098,1350.78L483.431,1350.23L484.76,1349.68L486.093,1349.14L487.427,1348.6L488.764,1348.06L490.098,1347.52L491.436,1346.99L492.773,1346.45L494.111,1345.92L495.449,1345.4L496.791,1344.87L498.129,1344.35L499.471,1343.83L500.813,1343.31L502.16,1342.79L503.502,1342.28L504.849,1341.77L506.196,1341.26L507.542,1340.75L508.889,1340.25L510.236,1339.75L511.587,1339.24L512.933,1338.75L514.284,1338.25L515.636,1337.76L516.991,1337.27L518.342,1336.78L519.698,1336.3L521.053,1335.81L522.404,1335.33L523.764,1334.85L525.12,1334.38L526.476,1333.91L527.836,1333.44L529.196,1332.96L530.551,1332.5L531.911,1332.04L533.276,1331.57L534.636,1331.12L535.996,1330.66L537.36,1330.2L538.724,1329.75L540.089,1329.3L541.453,1328.85L542.818,1328.41L544.182,1327.97L545.551,1327.53L546.916,1327.09L548.284,1326.65L549.653,1326.22L551.022,1325.79L552.391,1325.36L553.76,1324.94L555.133,1324.52L556.502,1324.09L557.876,1323.68L559.244,1323.26L560.618,1322.85L561.991,1322.44L563.364,1322.03L564.742,1321.62L566.116,1321.22L567.489,1320.82L568.867,1320.42L570.24,1320.02L571.618,1319.63L572.996,1319.24L574.373,1318.85L575.751,1318.46L577.129,1318.08L578.507,1317.69L579.889,1317.32L581.267,1316.94L582.644,1316.56L584.027,1316.19L585.409,1315.82L586.787,1315.45L588.169,1315.09L589.551,1314.73L590.933,1314.37L592.316,1314.01L593.702,1313.65L595.084,1313.3L596.467,1312.95L597.853,1312.6L599.236,1312.26L600.622,1311.92L602.004,1311.58L603.391,1311.24L604.778,1310.9L606.164,1310.57L607.551,1310.24L608.938,1309.91L610.324,1309.59L611.711,1309.26L613.098,1308.94L614.484,1308.62L615.871,1308.31L617.262,1307.99L618.649,1307.68L620.04,1307.37L621.427,1307.07L622.818,1306.76L624.204,1306.46L625.596,1306.16L626.987,1305.87L628.373,1305.57L629.764,1305.28L631.156,1304.99L632.547,1304.7L633.938,1304.42L635.329,1304.14L636.72,1303.86L638.111,1303.58L639.502,1303.31L640.893,1303.04L642.289,1302.76L643.68,1302.5L645.071,1302.23L646.467,1301.97L647.858,1301.71L649.249,1301.45L650.644,1301.2L652.036,1300.94L653.431,1300.69L654.822,1300.44L656.218,1300.2L657.609,1299.96L659.004,1299.72L660.396,1299.48L661.791,1299.24L663.187,1299.01L664.578,1298.78L665.973,1298.55L667.369,1298.32L668.764,1298.1L670.156,1297.88L671.551,1297.66L672.947,1297.44L674.342,1297.23L675.738,1297.02L677.133,1296.8L678.529,1296.6L679.92,1296.4L681.316,1296.19L682.711,1295.99L684.107,1295.8L685.502,1295.6L686.898,1295.41L688.293,1295.22L689.689,1295.03L691.084,1294.84L692.48,1294.66L693.876,1294.48L695.271,1294.3L696.671,1294.13L698.067,1293.96L699.462,1293.78L700.858,1293.61L702.253,1293.45L703.649,1293.28L705.044,1293.12L706.44,1292.96L707.836,1292.8L709.236,1292.65L710.631,1292.5L712.027,1292.35L713.422,1292.2L714.818,1292.06L716.213,1291.92L717.609,1291.78L719.009,1291.64L720.404,1291.5L721.8,1291.37L723.196,1291.24L724.591,1291.11L725.991,1290.99L727.387,1290.86L728.782,1290.74L730.178,1290.62L731.573,1290.51L732.973,1290.39L734.369,1290.28L735.764,1290.17L737.16,1290.07L738.556,1289.96L739.956,1289.86L741.351,1289.76L742.747,1289.66L744.142,1289.56L745.538,1289.47L746.938,1289.38L748.333,1289.29L749.729,1289.21L751.124,1289.12L752.52,1289.04L753.92,1288.96L755.316,1288.89L756.711,1288.82L758.107,1288.74L759.502,1288.68L760.902,1288.61L762.298,1288.54L763.693,1288.48L765.089,1288.42L766.484,1288.36L767.884,1288.31L769.28,1288.26L770.676,1288.2L772.071,1288.16L773.467,1288.11L774.867,1288.07L776.262,1288.03L777.658,1287.99L779.053,1287.95L780.449,1287.92L781.849,1287.89L783.244,1287.86L784.64,1287.83L786.036,1287.8L787.431,1287.78L788.831,1287.76L790.227,1287.75L791.622,1287.73L793.018,1287.72L794.413,1287.71L795.809,1287.7L797.209,1287.69L798.604,1287.69L801.396,1287.69L802.791,1287.69L804.191,1287.7L805.587,1287.71L809.773,1287.75L811.169,1287.76L812.569,1287.78L813.964,1287.8L816.756,1287.86L818.151,1287.89L819.551,1287.92L820.947,1287.95L822.342,1287.99L823.738,1288.03L825.133,1288.07L826.533,1288.11L827.929,1288.16L829.324,1288.2L832.116,1288.31L833.516,1288.36L836.307,1288.48L837.702,1288.54L839.098,1288.61L840.498,1288.68L841.893,1288.74L843.289,1288.82L844.684,1288.89L846.08,1288.96L847.48,1289.04L848.876,1289.12L851.667,1289.29L853.062,1289.38L854.462,1289.47L855.858,1289.56L860.044,1289.86L861.444,1289.96L865.631,1290.28L867.027,1290.39L868.427,1290.51L869.822,1290.62L872.613,1290.86L874.009,1290.99L875.409,1291.11L878.2,1291.37L879.596,1291.5L880.991,1291.64L882.391,1291.78L883.787,1291.92L885.182,1292.06L887.973,1292.35L890.764,1292.65L892.164,1292.8L896.351,1293.28L899.142,1293.61L900.538,1293.78L903.329,1294.13L904.729,1294.3L906.124,1294.48L908.916,1294.84L911.707,1295.22L914.498,1295.6L917.289,1295.99L918.684,1296.19L920.08,1296.4L921.471,1296.6L922.867,1296.8L924.262,1297.02L925.658,1297.23L927.053,1297.44L929.844,1297.88L931.236,1298.1L932.631,1298.32L934.027,1298.55L935.422,1298.78L936.813,1299.01L938.209,1299.24L939.604,1299.48L940.996,1299.72L942.391,1299.96L943.782,1300.2L945.178,1300.44L946.569,1300.69L947.964,1300.94L949.356,1301.2L950.751,1301.45L953.533,1301.97L954.929,1302.23L957.711,1302.76L959.107,1303.04L960.498,1303.31L963.28,1303.86L966.062,1304.42L967.453,1304.7L970.236,1305.28L971.627,1305.57L973.013,1305.87L975.796,1306.46L977.182,1306.76L978.573,1307.07L979.96,1307.37L981.351,1307.68L982.738,1307.99L984.129,1308.31L985.516,1308.62L988.289,1309.26L991.062,1309.91L993.836,1310.57L995.222,1310.9L997.996,1311.58L999.378,1311.92L1000.76,1312.26L1002.15,1312.6L1003.53,1312.95L1006.3,1313.65L1007.68,1314.01L1011.83,1315.09L1013.21,1315.45L1014.59,1315.82L1015.97,1316.19L1017.36,1316.56L1018.73,1316.94L1020.11,1317.32L1021.49,1317.69L1022.87,1318.08L1027,1319.24L1028.38,1319.63L1029.76,1320.02L1031.13,1320.42L1032.51,1320.82L1033.88,1321.22L1035.26,1321.62L1036.64,1322.03L1038.01,1322.44L1040.76,1323.26L1042.12,1323.68L1043.5,1324.09L1044.87,1324.52L1046.24,1324.94L1048.98,1325.79L1051.72,1326.65L1053.08,1327.09L1054.45,1327.53L1055.82,1327.97L1057.18,1328.41L1058.55,1328.85L1061.28,1329.75L1064,1330.66L1066.72,1331.57L1068.09,1332.04L1069.45,1332.5L1070.8,1332.96L1073.52,1333.91L1074.88,1334.38L1076.24,1334.85L1077.6,1335.33L1078.95,1335.81L1081.66,1336.78L1083.01,1337.27L1084.36,1337.76L1087.07,1338.75L1088.41,1339.24L1089.76,1339.75L1092.46,1340.75L1093.8,1341.26L1096.5,1342.28L1097.84,1342.79L1099.19,1343.31L1101.87,1344.35L1103.21,1344.87L1104.55,1345.4L1107.23,1346.45L1109.9,1347.52L1111.24,1348.06L1112.57,1348.6L1115.24,1349.68L1116.57,1350.23L1117.9,1350.78L1120.56,1351.88L1121.89,1352.44L1123.21,1353L1124.54,1353.56L1125.87,1354.12L1127.19,1354.68L1128.51,1355.25L1129.84,1355.82L1131.16,1356.39L1132.48,1356.96L1133.79,1357.54L1135.11,1358.12L1136.43,1358.69L1137.74,1359.28L1139.06,1359.86L1140.37,1360.45L1141.68,1361.04L1143,1361.63L1144.3,1362.22L1145.61,1362.82L1146.92,1363.42L1148.23,1364.02L1150.84,1365.23L1152.14,1365.83L1153.44,1366.44L1154.74,1367.05L1156.04,1367.67L1159.94,1369.52L1161.23,1370.14L1163.82,1371.4L1165.11,1372.02L1166.4,1372.65L1167.69,1373.29L1168.97,1373.92L1170.26,1374.56L1172.83,1375.84L1175.39,1377.13L1177.95,1378.43L1180.5,1379.73L1183.05,1381.05L1185.6,1382.37L1186.86,1383.04L1188.13,1383.7L1189.4,1384.37L1191.92,1385.72L1194.45,1387.07L1195.71,1387.75L1196.97,1388.43L1198.22,1389.11L1199.48,1389.8L1201.99,1391.17L1203.24,1391.86L1204.48,1392.56L1205.73,1393.25L1206.98,1393.95L1208.23,1394.65L1209.47,1395.35L1210.71,1396.05L1211.95,1396.76L1213.19,1397.47L1214.43,1398.17L1216.9,1399.6L1218.13,1400.31L1219.36,1401.03L1220.59,1401.75L1221.82,1402.47L1223.05,1403.19L1224.27,1403.92L1225.5,1404.64L1226.72,1405.37L1227.94,1406.1L1229.16,1406.83L1230.38,1407.56L1234.02,1409.78L1235.23,1410.52L1236.44,1411.26L1237.64,1412L1238.85,1412.75L1240.06,1413.5L1241.26,1414.25L1242.46,1415L1243.66,1415.76L1246.05,1417.27L1248.44,1418.79L1249.64,1419.56L1250.82,1420.32L1254.38,1422.63L1255.56,1423.4L1256.75,1424.17L1257.92,1424.95L1260.28,1426.5L1262.63,1428.07L1263.8,1428.85L1266.13,1430.42L1267.3,1431.21L1268.46,1432L1269.62,1432.8L1270.78,1433.59L1271.94,1434.38L1274.25,1435.98L1276.56,1437.58L1277.71,1438.39L1278.85,1439.19L1280,1440" style="fill:none;stroke:black;stroke-width:18.81px;stroke-linecap:butt;stroke-miterlimit:4;"/> <path d="M320,160L321.147,160.809L322.293,161.613L323.444,162.418L325.747,164.018L328.058,165.618L329.218,166.413L330.378,167.204L331.538,168L332.702,168.787L333.867,169.578L336.204,171.151L337.373,171.933L339.72,173.498L342.076,175.053L343.253,175.827L344.436,176.604L345.618,177.373L349.178,179.68L350.364,180.444L351.556,181.209L353.947,182.729L356.338,184.24L357.538,184.996L358.742,185.747L359.942,186.498L361.147,187.249L362.356,187.996L363.56,188.738L364.769,189.48L365.982,190.222L369.622,192.436L370.84,193.169L372.062,193.902L373.28,194.631L374.502,195.36L375.729,196.084L376.951,196.809L378.178,197.533L379.409,198.253L380.636,198.973L381.871,199.689L383.102,200.404L385.573,201.827L386.809,202.533L388.049,203.244L389.289,203.947L390.533,204.649L391.773,205.351L393.022,206.049L394.267,206.747L395.516,207.444L396.764,208.138L398.013,208.827L400.52,210.204L401.778,210.889L403.031,211.573L404.289,212.253L405.551,212.933L408.076,214.284L410.6,215.627L411.867,216.298L413.138,216.964L414.404,217.627L416.947,218.951L419.498,220.267L422.049,221.573L424.609,222.871L427.169,224.16L429.738,225.44L431.027,226.08L432.311,226.711L433.6,227.347L434.893,227.978L436.182,228.604L438.769,229.858L440.062,230.48L443.956,232.333L445.258,232.947L446.556,233.56L447.858,234.169L449.16,234.773L451.773,235.982L453.08,236.582L454.387,237.178L455.698,237.778L457.004,238.369L458.316,238.96L459.631,239.551L460.942,240.138L462.258,240.724L463.573,241.307L464.889,241.884L466.209,242.462L467.524,243.04L468.844,243.613L470.164,244.182L471.489,244.751L472.809,245.32L474.133,245.884L475.458,246.444L476.787,247.004L478.111,247.564L479.44,248.12L482.098,249.222L483.431,249.773L484.76,250.32L487.427,251.404L488.764,251.942L490.098,252.48L492.773,253.547L495.449,254.604L496.791,255.129L498.129,255.653L500.813,256.693L502.16,257.209L503.502,257.72L506.196,258.742L507.542,259.249L510.236,260.253L511.587,260.756L512.933,261.253L515.636,262.24L516.991,262.729L518.342,263.218L521.053,264.187L522.404,264.667L523.764,265.147L525.12,265.622L526.476,266.093L529.196,267.036L530.551,267.502L531.911,267.964L533.276,268.427L535.996,269.342L538.724,270.249L541.453,271.147L542.818,271.591L544.182,272.031L545.551,272.471L546.916,272.911L548.284,273.347L551.022,274.209L553.76,275.062L555.133,275.484L556.502,275.907L557.876,276.324L559.244,276.738L561.991,277.564L563.364,277.973L564.742,278.378L566.116,278.782L567.489,279.182L568.867,279.582L570.24,279.978L571.618,280.373L572.996,280.764L577.129,281.924L578.507,282.307L579.889,282.684L581.267,283.062L582.644,283.436L584.027,283.809L585.409,284.178L586.787,284.547L588.169,284.911L592.316,285.991L593.702,286.347L596.467,287.049L597.853,287.396L599.236,287.742L600.622,288.084L602.004,288.422L604.778,289.098L606.164,289.431L608.938,290.089L611.711,290.738L614.484,291.378L615.871,291.693L617.262,292.009L618.649,292.32L620.04,292.627L621.427,292.933L622.818,293.236L624.204,293.538L626.987,294.133L628.373,294.427L629.764,294.72L632.547,295.298L633.938,295.582L636.72,296.142L639.502,296.693L640.893,296.964L642.289,297.236L645.071,297.769L646.467,298.031L649.249,298.547L650.644,298.804L652.036,299.058L653.431,299.307L654.822,299.556L656.218,299.8L657.609,300.044L659.004,300.284L660.396,300.52L661.791,300.76L663.187,300.991L664.578,301.222L665.973,301.453L667.369,301.676L668.764,301.902L670.156,302.124L672.947,302.56L674.342,302.773L675.738,302.982L677.133,303.196L678.529,303.4L679.92,303.604L681.316,303.809L682.711,304.009L685.502,304.4L688.293,304.782L691.084,305.156L693.876,305.52L695.271,305.698L696.671,305.871L699.462,306.218L700.858,306.387L703.649,306.716L707.836,307.196L709.236,307.347L712.027,307.649L714.818,307.942L716.213,308.084L717.609,308.222L719.009,308.36L720.404,308.498L721.8,308.631L724.591,308.889L725.991,309.013L727.387,309.138L730.178,309.378L731.573,309.493L732.973,309.609L734.369,309.72L738.556,310.04L739.956,310.142L744.142,310.436L745.538,310.529L746.938,310.618L748.333,310.707L751.124,310.876L752.52,310.956L753.92,311.036L755.316,311.111L756.711,311.182L758.107,311.258L759.502,311.324L760.902,311.391L762.298,311.458L763.693,311.52L766.484,311.636L767.884,311.689L770.676,311.796L772.071,311.84L773.467,311.889L774.867,311.929L776.262,311.973L777.658,312.009L779.053,312.049L780.449,312.08L781.849,312.111L783.244,312.142L786.036,312.196L787.431,312.218L788.831,312.236L790.227,312.253L794.413,312.293L795.809,312.302L797.209,312.307L798.604,312.311L801.396,312.311L802.791,312.307L804.191,312.302L805.587,312.293L806.982,312.28L808.378,312.267L809.773,312.253L811.169,312.236L812.569,312.218L813.964,312.196L815.36,312.169L816.756,312.142L818.151,312.111L819.551,312.08L820.947,312.049L822.342,312.009L823.738,311.973L825.133,311.929L826.533,311.889L827.929,311.84L829.324,311.796L830.72,311.742L832.116,311.689L833.516,311.636L834.911,311.578L836.307,311.52L837.702,311.458L839.098,311.391L840.498,311.324L841.893,311.258L843.289,311.182L844.684,311.111L846.08,311.036L847.48,310.956L848.876,310.876L850.271,310.791L851.667,310.707L853.062,310.618L854.462,310.529L855.858,310.436L857.253,310.338L858.649,310.24L860.044,310.142L861.444,310.04L862.84,309.933L864.236,309.827L865.631,309.72L867.027,309.609L868.427,309.493L869.822,309.378L871.218,309.258L872.613,309.138L874.009,309.013L875.409,308.889L876.804,308.76L878.2,308.631L879.596,308.498L880.991,308.36L882.391,308.222L883.787,308.084L885.182,307.942L886.578,307.796L887.973,307.649L889.369,307.498L890.764,307.347L892.164,307.196L893.56,307.036L894.956,306.876L896.351,306.716L897.747,306.551L899.142,306.387L900.538,306.218L901.933,306.044L903.329,305.871L904.729,305.698L906.124,305.52L907.52,305.338L908.916,305.156L910.311,304.969L911.707,304.782L913.102,304.591L914.498,304.4L915.893,304.204L917.289,304.009L918.684,303.809L920.08,303.604L921.471,303.4L922.867,303.196L924.262,302.982L925.658,302.773L927.053,302.56L928.449,302.342L929.844,302.124L931.236,301.902L932.631,301.676L934.027,301.453L935.422,301.222L936.813,300.991L938.209,300.76L939.604,300.52L940.996,300.284L942.391,300.044L943.782,299.8L945.178,299.556L946.569,299.307L947.964,299.058L949.356,298.804L950.751,298.547L952.142,298.289L953.533,298.031L954.929,297.769L956.32,297.502L957.711,297.236L959.107,296.964L960.498,296.693L961.889,296.418L963.28,296.142L964.671,295.862L966.062,295.582L967.453,295.298L968.844,295.009L970.236,294.72L971.627,294.427L973.013,294.133L974.404,293.836L975.796,293.538L977.182,293.236L978.573,292.933L979.96,292.627L981.351,292.32L982.738,292.009L984.129,291.693L985.516,291.378L986.902,291.058L988.289,290.738L989.676,290.413L991.062,290.089L992.449,289.76L993.836,289.431L995.222,289.098L996.609,288.76L997.996,288.422L999.378,288.084L1000.76,287.742L1002.15,287.396L1003.53,287.049L1004.92,286.698L1006.3,286.347L1007.68,285.991L1009.07,285.631L1010.45,285.271L1011.83,284.911L1013.21,284.547L1014.59,284.178L1015.97,283.809L1017.36,283.436L1018.73,283.062L1020.11,282.684L1021.49,282.307L1022.87,281.924L1024.25,281.538L1025.63,281.151L1027,280.764L1028.38,280.373L1029.76,279.978L1031.13,279.582L1032.51,279.182L1033.88,278.782L1035.26,278.378L1036.64,277.973L1038.01,277.564L1039.38,277.151L1040.76,276.738L1042.12,276.324L1043.5,275.907L1044.87,275.484L1046.24,275.062L1047.61,274.636L1048.98,274.209L1050.35,273.778L1051.72,273.347L1053.08,272.911L1054.45,272.471L1055.82,272.031L1057.18,271.591L1058.55,271.147L1059.91,270.698L1061.28,270.249L1062.64,269.796L1064,269.342L1065.36,268.884L1066.72,268.427L1068.09,267.964L1069.45,267.502L1070.8,267.036L1072.16,266.564L1073.52,266.093L1074.88,265.622L1076.24,265.147L1077.6,264.667L1078.95,264.187L1080.3,263.702L1081.66,263.218L1083.01,262.729L1084.36,262.24L1085.72,261.747L1087.07,261.253L1088.41,260.756L1089.76,260.253L1091.11,259.751L1092.46,259.249L1093.8,258.742L1095.15,258.231L1096.5,257.72L1097.84,257.209L1099.19,256.693L1100.53,256.173L1101.87,255.653L1103.21,255.129L1104.55,254.604L1105.89,254.076L1107.23,253.547L1108.56,253.013L1109.9,252.48L1111.24,251.942L1112.57,251.404L1113.91,250.862L1115.24,250.32L1116.57,249.773L1117.9,249.222L1119.23,248.671L1120.56,248.12L1121.89,247.564L1123.21,247.004L1124.54,246.444L1125.87,245.884L1127.19,245.32L1128.51,244.751L1129.84,244.182L1131.16,243.613L1132.48,243.04L1133.79,242.462L1135.11,241.884L1136.43,241.307L1137.74,240.724L1139.06,240.138L1140.37,239.551L1141.68,238.96L1143,238.369L1144.3,237.778L1145.61,237.178L1146.92,236.582L1148.23,235.982L1149.53,235.378L1150.84,234.773L1152.14,234.169L1153.44,233.56L1154.74,232.947L1156.04,232.333L1157.34,231.716L1158.64,231.098L1159.94,230.48L1161.23,229.858L1162.52,229.231L1163.82,228.604L1165.11,227.978L1166.4,227.347L1167.69,226.711L1168.97,226.08L1170.26,225.44L1171.55,224.8L1172.83,224.16L1174.11,223.516L1175.39,222.871L1176.67,222.222L1177.95,221.573L1179.23,220.92L1180.5,220.267L1181.78,219.609L1183.05,218.951L1184.32,218.289L1185.6,217.627L1186.86,216.964L1188.13,216.298L1189.4,215.627L1190.66,214.956L1191.92,214.284L1193.19,213.609L1194.45,212.933L1195.71,212.253L1196.97,211.573L1198.22,210.889L1199.48,210.204L1200.73,209.516L1201.99,208.827L1203.24,208.138L1204.48,207.444L1205.73,206.747L1206.98,206.049L1208.23,205.351L1209.47,204.649L1210.71,203.947L1211.95,203.244L1213.19,202.533L1214.43,201.827L1215.66,201.116L1216.9,200.404L1218.13,199.689L1219.36,198.973L1220.59,198.253L1221.82,197.533L1223.05,196.809L1224.27,196.084L1225.5,195.36L1226.72,194.631L1227.94,193.902L1229.16,193.169L1230.38,192.436L1231.59,191.698L1232.8,190.96L1234.02,190.222L1235.23,189.48L1236.44,188.738L1237.64,187.996L1238.85,187.249L1240.06,186.498L1241.26,185.747L1242.46,184.996L1243.66,184.24L1244.86,183.484L1246.05,182.729L1247.25,181.969L1248.44,181.209L1249.64,180.444L1250.82,179.68L1252.01,178.911L1253.2,178.142L1254.38,177.373L1255.56,176.604L1256.75,175.827L1257.92,175.053L1259.1,174.276L1260.28,173.498L1261.45,172.716L1262.63,171.933L1263.8,171.151L1264.96,170.364L1266.13,169.578L1267.3,168.787L1268.46,168L1269.62,167.204L1270.78,166.413L1271.94,165.618L1273.1,164.818L1274.25,164.018L1275.4,163.218L1276.56,162.418L1277.71,161.613L1278.85,160.809L1280,160" style="fill:none;stroke:black;stroke-width:18.81px;stroke-linecap:butt;stroke-miterlimit:4;"/> <path d="M0,800L1600,800" style="fill:none;stroke:black;stroke-width:18.81px;stroke-linecap:butt;stroke-miterlimit:4;"/> </g> <g id="Sisäreuna" transform="matrix(1.18045,0.233637,-0.233637,1.18045,148.749,-95.3767)"> <circle cx="528.5" cy="526.5" r="294.5" style="fill:none;stroke:black;stroke-width:6.93px;"/> </g> <path id="Käyrä" d="M1078.37,422.131C1089.79,443.713 1099.53,466.068 1107.54,488.982L811.18,715.33L740.308,647.452L571.307,778.076L452.56,648.581L202.926,839.372C193.169,816.332 185.215,792.603 179.115,768.419L460.999,552.978L579.507,682.213L745.251,554.107L816.379,622.229L1078.37,422.131Z" style="fill:rgb(192,31,41);fill-rule:nonzero;stroke:black;stroke-width:8.33px;stroke-linecap:butt;stroke-miterlimit:2;"/> <path d="M1078.37,422.131C1089.79,443.713 1099.53,466.068 1107.54,488.982L811.18,715.33L740.308,647.452L571.307,778.076L452.56,648.581L202.926,839.372C193.169,816.332 185.215,792.603 179.115,768.419L460.999,552.978L579.507,682.213L745.251,554.107L816.379,622.229L1078.37,422.131Z" style="fill:rgb(192,31,41);fill-rule:nonzero;stroke:black;stroke-width:8.33px;stroke-linecap:butt;stroke-miterlimit:2;"/> <path id="Hammasratas" d="M1022.69,569.515C1024.66,578.74 1026.29,588.087 1027.58,597.541L1134.42,622.771L1134.42,676.441L1027.58,701.672C1023.83,729.232 1017.13,755.876 1007.84,781.226L1090.32,853.708L1065.17,901.103L958.993,873.115C942.956,895.327 924.598,915.721 904.273,933.975L943.169,1036.89L898.766,1066.9L818.18,992.268C797.796,1002.33 776.382,1010.61 754.139,1016.9L744.084,1126.38L689.803,1133.86L689.858,1001.67C866.496,981.661 1003.94,831.558 1003.94,649.606C1003.94,628.572 1002.1,607.963 998.578,587.931L1022.69,569.515ZM315.854,768.796C360.885,894.724 475.213,987.819 612.804,1002.05L613.031,1133.86L556.251,1126.38L546.207,1016.9C523.952,1010.59 502.55,1002.33 482.167,992.256L401.569,1066.9L357.166,1036.89L396.061,933.975C375.737,915.721 357.379,895.327 341.342,873.115L235.161,901.103L210.016,853.708L245.147,822.837L315.854,768.796ZM252.21,696.82L165.921,676.441L165.921,622.771L272.754,597.541C276.508,569.993 283.2,543.36 292.498,517.987L210.016,445.492L235.161,398.121L341.342,426.121C357.379,403.897 375.737,383.504 396.061,365.237L357.166,262.331L401.569,232.323L482.167,306.956C502.55,296.89 523.952,288.619 546.207,282.308L556.251,172.841L613.031,165.354L612.824,297.166C434.52,315.59 295.276,466.465 295.276,649.606C295.276,654.324 295.368,659.021 295.551,663.695L252.21,696.82ZM966.799,491.616C914.376,386.665 811.389,311.304 689.844,297.54L689.803,165.354L744.084,172.841L754.139,282.308C776.382,288.619 797.796,296.89 818.18,306.956L898.766,232.323L943.169,262.331L904.273,365.237C924.598,383.504 942.956,403.897 958.993,426.121L1065.17,398.121L1072.11,411.185L966.799,491.616Z" style="fill:none;stroke:black;stroke-width:8.33px;stroke-linecap:butt;stroke-miterlimit:2;"/> <g id="Tekstit"> <g transform="matrix(1,0,0,1,-154.964,-152.964)"> <g id="Alapuoli"> <g transform="matrix(0.766924,0.641738,-0.641738,0.766924,884.619,15.412)"> <text x="421.092px" y="1225.54px" style="font-family:'ArialMT', 'Arial', sans-serif;font-size:75px;">T</text> </g> <g transform="matrix(0.812031,0.583615,-0.583615,0.812031,815.372,-28.408)"> <text x="451.787px" y="1251.6px" style="font-family:'ArialMT', 'Arial', sans-serif;font-size:75px;">A</text> </g> <g transform="matrix(0.86538,0.501116,-0.501116,0.86538,708.234,-74.2297)"> <text x="492.275px" y="1281.07px" style="font-family:'ArialMT', 'Arial', sans-serif;font-size:75px;">M</text> </g> <g transform="matrix(0.911564,0.411158,-0.411158,0.911564,587.839,-108.651)"> <text x="546.491px" y="1312.17px" style="font-family:'ArialMT', 'Arial', sans-serif;font-size:75px;">P</text> </g> <g transform="matrix(0.944137,0.329552,-0.329552,0.944137,472.334,-120.696)"> <text x="592.18px" y="1332.88px" style="font-family:'ArialMT', 'Arial', sans-serif;font-size:75px;">E</text> </g> <g transform="matrix(0.971064,0.23882,-0.23882,0.971064,340.815,-113.635)"> <text x="639.341px" y="1349.62px" style="font-family:'ArialMT', 'Arial', sans-serif;font-size:75px;">R</text> </g> <g transform="matrix(0.98847,0.151414,-0.151414,0.98847,214.297,-89.0608)"> <text x="691.951px" y="1362.61px" style="font-family:'ArialMT', 'Arial', sans-serif;font-size:75px;">E</text> </g> <g transform="matrix(0.999647,0.026552,-0.026552,0.999647,36.7038,-19.7532)"> <text x="762.167px" y="1372.22px" style="font-family:'ArialMT', 'Arial', sans-serif;font-size:75px;">U</text> </g> <g transform="matrix(0.997773,-0.066698,0.066698,0.997773,-89.8018,57.5056)"> <text x="816.318px" y="1373.65px" style="font-family:'ArialMT', 'Arial', sans-serif;font-size:75px;">N</text> </g> <g transform="matrix(0.991182,-0.132509,0.132509,0.991182,-173.795,127.4)"> <text x="870.309px" y="1369.49px" style="font-family:'ArialMT', 'Arial', sans-serif;font-size:75px;">I</text> </g> <g transform="matrix(0.981085,-0.193579,0.193579,0.981085,-247.8,198.35)"> <text x="891.057px" y="1367.17px" style="font-family:'ArialMT', 'Arial', sans-serif;font-size:75px;">V</text> </g> <g transform="matrix(0.959626,-0.281279,0.281279,0.959626,-343.877,319.27)"> <text x="940.214px" y="1357.5px" style="font-family:'ArialMT', 'Arial', sans-serif;font-size:75px;">E</text> </g> <g transform="matrix(0.928775,-0.370643,0.370643,0.928775,-427.64,462)"> <text x="988.271px" y="1343.69px" style="font-family:'ArialMT', 'Arial', sans-serif;font-size:75px;">R</text> </g> <g transform="matrix(0.893032,-0.449994,0.449994,0.893032,-484.496,608.977)"> <text x="1038.67px" y="1323.58px" style="font-family:'ArialMT', 'Arial', sans-serif;font-size:75px;">S</text> </g> <g transform="matrix(0.863006,-0.505193,0.505193,0.863006,-508.71,725.361)"> <text x="1083.11px" y="1300.67px" style="font-family:'ArialMT', 'Arial', sans-serif;font-size:75px;">I</text> </g> <g transform="matrix(0.832087,-0.554646,0.554646,0.832087,-530.822,827.511)"> <text x="1101.29px" y="1290.45px" style="font-family:'ArialMT', 'Arial', sans-serif;font-size:75px;">T</text> </g> <g transform="matrix(0.783188,-0.621785,0.621785,0.783188,-539.562,982.802)"> <text x="1139.48px" y="1265.09px" style="font-family:'ArialMT', 'Arial', sans-serif;font-size:75px;">Y</text> </g> </g> </g> <g transform="matrix(1,0,0,1,-154.964,-152.964)"> <g id="Yläpuoli"> <g transform="matrix(-0.464508,-0.885569,0.885569,-0.464508,-416.2,1882.35)"> <text x="361.016px" y="1067.01px" style="font-family:'ArialMT', 'Arial', sans-serif;font-size:75px;">G</text> </g> <g transform="matrix(-0.374382,-0.927274,0.927274,-0.374382,-483.833,1714.17)"> <text x="336.345px" y="1020.3px" style="font-family:'ArialMT', 'Arial', sans-serif;font-size:75px;">U</text> </g> <g transform="matrix(-0.311806,-0.950146,0.950146,-0.311806,-507.833,1578.74)"> <text x="317.827px" y="973.283px" style="font-family:'ArialMT', 'Arial', sans-serif;font-size:75px;">I</text> </g> <g transform="matrix(-0.256566,-0.966527,0.966527,-0.256566,-532.641,1503.43)"> <text x="311.883px" y="956.562px" style="font-family:'ArialMT', 'Arial', sans-serif;font-size:75px;">L</text> </g> <g transform="matrix(-0.174877,-0.98459,0.98459,-0.174877,-551.999,1378.99)"> <text x="301.822px" y="920.791px" style="font-family:'ArialMT', 'Arial', sans-serif;font-size:75px;">D</text> </g> <g transform="matrix(-0.0423885,-0.999101,0.999101,-0.0423885,-550.288,1180.69)"> <text x="290.687px" y="854.065px" style="font-family:'ArialMT', 'Arial', sans-serif;font-size:75px;">O</text> </g> <g transform="matrix(0.0497068,-0.998764,0.998764,0.0497068,-525.692,1049.02)"> <text x="288.415px" y="800.761px" style="font-family:'ArialMT', 'Arial', sans-serif;font-size:75px;">F</text> </g> <g transform="matrix(0.141679,-0.989913,0.989913,0.141679,-480.695,924.379)"> <text x="292.702px" y="739.385px" style="font-family:'ArialMT', 'Arial', sans-serif;font-size:75px;">I</text> </g> <g transform="matrix(0.206054,-0.978541,0.978541,0.206054,-472.902,861.571)"> <text x="294.493px" y="722.211px" style="font-family:'ArialMT', 'Arial', sans-serif;font-size:75px;">N</text> </g> <g transform="matrix(0.300569,-0.95376,0.95376,0.300569,-430.3,761.843)"> <text x="304.283px" y="674.305px" style="font-family:'ArialMT', 'Arial', sans-serif;font-size:75px;">D</text> </g> <g transform="matrix(0.38873,-0.921352,0.921352,0.38873,-383.224,677.22)"> <text x="318.767px" y="627.422px" style="font-family:'ArialMT', 'Arial', sans-serif;font-size:75px;">U</text> </g> <g transform="matrix(0.471041,-0.882111,0.882111,0.471041,-334.833,605.852)"> <text x="337.754px" y="582.116px" style="font-family:'ArialMT', 'Arial', sans-serif;font-size:75px;">S</text> </g> <g transform="matrix(0.543976,-0.839101,0.839101,0.543976,-291.071,548.456)"> <text x="359.054px" y="542.018px" style="font-family:'ArialMT', 'Arial', sans-serif;font-size:75px;">T</text> </g> <g transform="matrix(0.61827,-0.785966,0.785966,0.61827,-253.461,493.026)"> <text x="380.829px" y="507.446px" style="font-family:'ArialMT', 'Arial', sans-serif;font-size:75px;">R</text> </g> <g transform="matrix(0.665148,-0.746711,0.746711,0.665148,-211.161,464.622)"> <text x="412.468px" y="467.753px" style="font-family:'ArialMT', 'Arial', sans-serif;font-size:75px;">I</text> </g> <g transform="matrix(0.709734,-0.70447,0.70447,0.709734,-197.075,430.35)"> <text x="423.687px" y="454.323px" style="font-family:'ArialMT', 'Arial', sans-serif;font-size:75px;">A</text> </g> <g transform="matrix(0.765247,-0.643737,0.643737,0.765247,-164.74,392.629)"> <text x="455.961px" y="422.188px" style="font-family:'ArialMT', 'Arial', sans-serif;font-size:75px;">L</text> </g> <g transform="matrix(0.83167,-0.55527,0.55527,0.83167,-131.654,341.398)"> <text x="497.257px" y="387.843px" style="font-family:'ArialMT', 'Arial', sans-serif;font-size:75px;">E</text> </g> <g transform="matrix(0.877884,-0.478873,0.478873,0.877884,-108.272,300.306)"> <text x="534.683px" y="362.445px" style="font-family:'ArialMT', 'Arial', sans-serif;font-size:75px;">N</text> </g> <g transform="matrix(0.920755,-0.390141,0.390141,0.920755,-86.4393,252.07)"> <text x="577.279px" y="338.815px" style="font-family:'ArialMT', 'Arial', sans-serif;font-size:75px;">G</text> </g> <g transform="matrix(0.94603,-0.32408,0.32408,0.94603,-69.2035,220.568)"> <text x="627.63px" y="318.06px" style="font-family:'ArialMT', 'Arial', sans-serif;font-size:75px;">I</text> </g> <g transform="matrix(0.965267,-0.261266,0.261266,0.965267,-59.1109,179.026)"> <text x="643.769px" y="311.832px" style="font-family:'ArialMT', 'Arial', sans-serif;font-size:75px;">N</text> </g> <g transform="matrix(0.985537,-0.16946,0.16946,0.985537,-40.6468,121.434)"> <text x="691.087px" y="298.843px" style="font-family:'ArialMT', 'Arial', sans-serif;font-size:75px;">E</text> </g> <g transform="matrix(0.996593,-0.0824747,0.0824747,0.996593,-21.4849,61.6615)"> <text x="735.626px" y="290.891px" style="font-family:'ArialMT', 'Arial', sans-serif;font-size:75px;">E</text> </g> <g transform="matrix(0.999947,0.0103062,-0.0103062,0.999947,2.99621,-8.02815)"> <text x="780.442px" y="286.698px" style="font-family:'ArialMT', 'Arial', sans-serif;font-size:75px;">R</text> </g> <g transform="matrix(0.997473,0.0710396,-0.0710396,0.997473,22.527,-58.3208)"> <text x="831.188px" y="287.543px" style="font-family:'ArialMT', 'Arial', sans-serif;font-size:75px;">I</text> </g> <g transform="matrix(0.990759,0.135633,-0.135633,0.990759,46.9188,-112.418)"> <text x="848.473px" y="288.117px" style="font-family:'ArialMT', 'Arial', sans-serif;font-size:75px;">N</text> </g> <g transform="matrix(0.972536,0.232752,-0.232752,0.972536,93.1508,-200.656)"> <text x="896.842px" y="294.391px" style="font-family:'ArialMT', 'Arial', sans-serif;font-size:75px;">G</text> </g> <g transform="matrix(0.935589,0.353091,-0.353091,0.935589,171.889,-319.972)"> <text x="962.963px" y="311.148px" style="font-family:'ArialMT', 'Arial', sans-serif;font-size:75px;">A</text> </g> <g transform="matrix(0.89944,0.437045,-0.437045,0.89944,243.894,-406.465)"> <text x="1005.22px" y="326.761px" style="font-family:'ArialMT', 'Arial', sans-serif;font-size:75px;">N</text> </g> <g transform="matrix(0.852937,0.522014,-0.522014,0.852937,335.879,-496.567)"> <text x="1049.25px" y="347.834px" style="font-family:'ArialMT', 'Arial', sans-serif;font-size:75px;">D</text> </g> <g transform="matrix(0.77382,0.633406,-0.633406,0.77382,493.309,-614.182)"> <text x="1106.65px" y="383.652px" style="font-family:'ArialMT', 'Arial', sans-serif;font-size:75px;">M</text> </g> <g transform="matrix(0.708159,0.706053,-0.706053,0.708159,632.299,-690.002)"> <text x="1150.81px" y="419.862px" style="font-family:'ArialMT', 'Arial', sans-serif;font-size:75px;">A</text> </g> <g transform="matrix(0.641738,0.766924,-0.766924,0.641738,770.014,-745.477)"> <text x="1182.92px" y="451.437px" style="font-family:'ArialMT', 'Arial', sans-serif;font-size:75px;">N</text> </g> <g transform="matrix(0.569074,0.822286,-0.822286,0.569074,925.63,-787.987)"> <text x="1214.63px" y="489.143px" style="font-family:'ArialMT', 'Arial', sans-serif;font-size:75px;">A</text> </g> <g transform="matrix(0.489135,0.872208,-0.872208,0.489135,1092.39,-813.374)"> <text x="1240.54px" y="525.844px" style="font-family:'ArialMT', 'Arial', sans-serif;font-size:75px;">G</text> </g> <g transform="matrix(0.401909,0.91568,-0.91568,0.401909,1281.28,-817.625)"> <text x="1266.54px" y="572.012px" style="font-family:'ArialMT', 'Arial', sans-serif;font-size:75px;">E</text> </g> <g transform="matrix(0.310887,0.950447,-0.950447,0.310887,1467.9,-799.156)"> <text x="1285.06px" y="612.711px" style="font-family:'ArialMT', 'Arial', sans-serif;font-size:75px;">M</text> </g> <g transform="matrix(0.213324,0.976982,-0.976982,0.213324,1676.35,-748.202)"> <text x="1302.78px" y="666.839px" style="font-family:'ArialMT', 'Arial', sans-serif;font-size:75px;">E</text> </g> <g transform="matrix(0.125082,0.992146,-0.992146,0.125082,1853.79,-680.501)"> <text x="1312.74px" y="710.838px" style="font-family:'ArialMT', 'Arial', sans-serif;font-size:75px;">N</text> </g> <g transform="matrix(0.0376392,0.999291,-0.999291,0.0376392,2028.55,-586.784)"> <text x="1318.93px" y="759.808px" style="font-family:'ArialMT', 'Arial', sans-serif;font-size:75px;">T</text> </g> <g transform="matrix(-0.0536608,0.998559,-0.998559,-0.0536608,2209.77,-453.928)"> <text x="1319.98px" y="820.14px" style="font-family:'ArialMT', 'Arial', sans-serif;font-size:75px;">I</text> </g> <g transform="matrix(-0.118231,0.992986,-0.992986,-0.118231,2307.31,-373.986)"> <text x="1319.7px" y="837.449px" style="font-family:'ArialMT', 'Arial', sans-serif;font-size:75px;">N</text> </g> <g transform="matrix(-0.214088,0.976814,-0.976814,-0.214088,2461.03,-208.071)"> <text x="1314.22px" y="885.996px" style="font-family:'ArialMT', 'Arial', sans-serif;font-size:75px;">D</text> </g> <g transform="matrix(-0.303153,0.952942,-0.952942,-0.303153,2589.33,-25.269)"> <text x="1303.9px" y="934.099px" style="font-family:'ArialMT', 'Arial', sans-serif;font-size:75px;">E</text> </g> <g transform="matrix(-0.388378,0.9215,-0.9215,-0.388378,2692.28,167.295)"> <text x="1290.62px" y="977.112px" style="font-family:'ArialMT', 'Arial', sans-serif;font-size:75px;">C</text> </g> <g transform="matrix(-0.470205,0.882557,-0.882557,-0.470205,2772,381.153)"> <text x="1271.6px" y="1022.58px" style="font-family:'ArialMT', 'Arial', sans-serif;font-size:75px;">S</text> </g> </g> </g> </g> </svg>